<mxfile host="Electron" agent="Mozilla/5.0 (Macintosh; Intel Mac OS X 10_15_7) AppleWebKit/537.36 (KHTML, like Gecko) draw.io/24.7.8 Chrome/128.0.6613.36 Electron/32.0.1 Safari/537.36" version="24.7.8">
  <diagram name="Page-1" id="tBIAlemMxgHySIvlNtww">
    <mxGraphModel dx="4780" dy="2847" grid="1" gridSize="10" guides="1" tooltips="1" connect="1" arrows="1" fold="1" page="1" pageScale="1" pageWidth="1920" pageHeight="1200" math="0" shadow="0">
      <root>
        <mxCell id="0" />
        <mxCell id="1" parent="0" />
        <mxCell id="nPTtFJBcblNeartGyqR0-44" value="&lt;span style=&quot;color: rgba(0, 0, 0, 0); font-family: monospace; font-size: 0px; text-align: start; text-wrap: nowrap; background-color: rgb(251, 251, 251);&quot;&gt;%3CmxGraphModel%3E%3Croot%3E%3CmxCell%20id%3D%220%22%2F%3E%3CmxCell%20id%3D%221%22%20parent%3D%220%22%2F%3E%3CmxCell%20id%3D%222%22%20value%3D%22%22%20style%3D%22group%22%20vertex%3D%221%22%20connectable%3D%220%22%20parent%3D%221%22%3E%3CmxGeometry%20x%3D%2240%22%20y%3D%2240%22%20width%3D%22655%22%20height%3D%22660%22%20as%3D%22geometry%22%2F%3E%3C%2FmxCell%3E%3CmxCell%20id%3D%223%22%20style%3D%22edgeStyle%3DorthogonalEdgeStyle%3Bshape%3Dconnector%3Brounded%3D0%3BorthogonalLoop%3D1%3BjettySize%3Dauto%3Bhtml%3D1%3BexitX%3D0%3BexitY%3D0.75%3BexitDx%3D0%3BexitDy%3D0%3BexitPerimeter%3D0%3BstrokeColor%3Ddefault%3Balign%3Dcenter%3BverticalAlign%3Dmiddle%3BfontFamily%3DHelvetica%3BfontSize%3D11%3BfontColor%3Ddefault%3BlabelBackgroundColor%3Ddefault%3BendArrow%3Dnone%3BendFill%3D0%3B%22%20edge%3D%221%22%20parent%3D%222%22%20source%3D%224%22%3E%3CmxGeometry%20relative%3D%221%22%20as%3D%22geometry%22%3E%3CmxPoint%20x%3D%22465%22%20y%3D%2270%22%20as%3D%22targetPoint%22%2F%3E%3C%2FmxGeometry%3E%3C%2FmxCell%3E%3CmxCell%20id%3D%224%22%20value%3D%22%26lt%3Bp%20style%3D%26quot%3Bline-height%3A%20110%25%3B%26quot%3B%26gt%3B%26lt%3Bbr%26gt%3B%26lt%3B%2Fp%26gt%3B%22%20style%3D%22verticalLabelPosition%3Dbottom%3Bshadow%3D0%3Bdashed%3D0%3Balign%3Dcenter%3Bhtml%3D1%3BverticalAlign%3Dtop%3Bshape%3Dmxgraph.electrical.logic_gates.logic_gate%3Boperation%3Dand%3BspacingTop%3D-20%3B%22%20vertex%3D%221%22%20parent%3D%222%22%3E%3CmxGeometry%20x%3D%22485%22%20y%3D%2224%22%20width%3D%22100%22%20height%3D%2260%22%20as%3D%22geometry%22%2F%3E%3C%2FmxCell%3E%3CmxCell%20id%3D%225%22%20style%3D%22edgeStyle%3DorthogonalEdgeStyle%3Bshape%3Dconnector%3Brounded%3D0%3BorthogonalLoop%3D1%3BjettySize%3Dauto%3Bhtml%3D1%3BexitX%3D0%3BexitY%3D0.25%3BexitDx%3D0%3BexitDy%3D0%3BexitPerimeter%3D0%3BstrokeColor%3Ddefault%3Balign%3Dcenter%3BverticalAlign%3Dmiddle%3BfontFamily%3DHelvetica%3BfontSize%3D11%3BfontColor%3Ddefault%3BlabelBackgroundColor%3Ddefault%3BendArrow%3Dnone%3BendFill%3D0%3B%22%20edge%3D%221%22%20parent%3D%222%22%20source%3D%227%22%3E%3CmxGeometry%20relative%3D%221%22%20as%3D%22geometry%22%3E%3CmxPoint%20x%3D%2285%22%20y%3D%22109%22%20as%3D%22targetPoint%22%2F%3E%3C%2FmxGeometry%3E%3C%2FmxCell%3E%3CmxCell%20id%3D%226%22%20style%3D%22edgeStyle%3DorthogonalEdgeStyle%3Bshape%3Dconnector%3Brounded%3D0%3BorthogonalLoop%3D1%3BjettySize%3Dauto%3Bhtml%3D1%3BexitX%3D0%3BexitY%3D0.75%3BexitDx%3D0%3BexitDy%3D0%3BexitPerimeter%3D0%3BstrokeColor%3Ddefault%3Balign%3Dcenter%3BverticalAlign%3Dmiddle%3BfontFamily%3DHelvetica%3BfontSize%3D11%3BfontColor%3Ddefault%3BlabelBackgroundColor%3Ddefault%3BendArrow%3Dnone%3BendFill%3D0%3B%22%20edge%3D%221%22%20parent%3D%222%22%20source%3D%227%22%3E%3CmxGeometry%20relative%3D%221%22%20as%3D%22geometry%22%3E%3CmxPoint%20x%3D%22465%22%20y%3D%22138.83333333333337%22%20as%3D%22targetPoint%22%2F%3E%3C%2FmxGeometry%3E%3C%2FmxCell%3E%3CmxCell%20id%3D%227%22%20value%3D%22%26lt%3Bp%20style%3D%26quot%3Bline-height%3A%20110%25%3B%26quot%3B%26gt%3B%26lt%3Bbr%26gt%3B%26lt%3B%2Fp%26gt%3B%22%20style%3D%22verticalLabelPosition%3Dbottom%3Bshadow%3D0%3Bdashed%3D0%3Balign%3Dcenter%3Bhtml%3D1%3BverticalAlign%3Dtop%3Bshape%3Dmxgraph.electrical.logic_gates.logic_gate%3Boperation%3Dand%3BspacingTop%3D-20%3B%22%20vertex%3D%221%22%20parent%3D%222%22%3E%3CmxGeometry%20x%3D%22485%22%20y%3D%2294%22%20width%3D%22100%22%20height%3D%2260%22%20as%3D%22geometry%22%2F%3E%3C%2FmxCell%3E%3CmxCell%20id%3D%228%22%20style%3D%22edgeStyle%3DorthogonalEdgeStyle%3Bshape%3Dconnector%3Brounded%3D0%3BorthogonalLoop%3D1%3BjettySize%3Dauto%3Bhtml%3D1%3BexitX%3D0%3BexitY%3D0.25%3BexitDx%3D0%3BexitDy%3D0%3BexitPerimeter%3D0%3BstrokeColor%3Ddefault%3Balign%3Dcenter%3BverticalAlign%3Dmiddle%3BfontFamily%3DHelvetica%3BfontSize%3D11%3BfontColor%3Ddefault%3BlabelBackgroundColor%3Ddefault%3BendArrow%3Dnone%3BendFill%3D0%3B%22%20edge%3D%221%22%20parent%3D%222%22%20source%3D%2210%22%3E%3CmxGeometry%20relative%3D%221%22%20as%3D%22geometry%22%3E%3CmxPoint%20x%3D%2285%22%20y%3D%22179%22%20as%3D%22targetPoint%22%2F%3E%3C%2FmxGeometry%3E%3C%2FmxCell%3E%3CmxCell%20id%3D%229%22%20style%3D%22edgeStyle%3DorthogonalEdgeStyle%3Bshape%3Dconnector%3Brounded%3D0%3BorthogonalLoop%3D1%3BjettySize%3Dauto%3Bhtml%3D1%3BexitX%3D0%3BexitY%3D0.75%3BexitDx%3D0%3BexitDy%3D0%3BexitPerimeter%3D0%3BstrokeColor%3Ddefault%3Balign%3Dcenter%3BverticalAlign%3Dmiddle%3BfontFamily%3DHelvetica%3BfontSize%3D11%3BfontColor%3Ddefault%3BlabelBackgroundColor%3Ddefault%3BendArrow%3Dnone%3BendFill%3D0%3B%22%20edge%3D%221%22%20parent%3D%222%22%20source%3D%2210%22%3E%3CmxGeometry%20relative%3D%221%22%20as%3D%22geometry%22%3E%3CmxPoint%20x%3D%22465%22%20y%3D%22209.9999999999999%22%20as%3D%22targetPoint%22%2F%3E%3C%2FmxGeometry%3E%3C%2FmxCell%3E%3CmxCell%20id%3D%2210%22%20value%3D%22%26lt%3Bp%20style%3D%26quot%3Bline-height%3A%20110%25%3B%26quot%3B%26gt%3B%26lt%3Bbr%26gt%3B%26lt%3B%2Fp%26gt%3B%22%20style%3D%22verticalLabelPosition%3Dbottom%3Bshadow%3D0%3Bdashed%3D0%3Balign%3Dcenter%3Bhtml%3D1%3BverticalAlign%3Dtop%3Bshape%3Dmxgraph.electrical.logic_gates.logic_gate%3Boperation%3Dand%3BspacingTop%3D-20%3B%22%20vertex%3D%221%22%20parent%3D%222%22%3E%3CmxGeometry%20x%3D%22485%22%20y%3D%22164%22%20width%3D%22100%22%20height%3D%2260%22%20as%3D%22geometry%22%2F%3E%3C%2FmxCell%3E%3CmxCell%20id%3D%2211%22%20style%3D%22edgeStyle%3DorthogonalEdgeStyle%3Bshape%3Dconnector%3Brounded%3D0%3BorthogonalLoop%3D1%3BjettySize%3Dauto%3Bhtml%3D1%3BexitX%3D0%3BexitY%3D0.25%3BexitDx%3D0%3BexitDy%3D0%3BexitPerimeter%3D0%3BstrokeColor%3Ddefault%3Balign%3Dcenter%3BverticalAlign%3Dmiddle%3BfontFamily%3DHelvetica%3BfontSize%3D11%3BfontColor%3Ddefault%3BlabelBackgroundColor%3Ddefault%3BendArrow%3Dnone%3BendFill%3D0%3B%22%20edge%3D%221%22%20parent%3D%222%22%20source%3D%2213%22%3E%3CmxGeometry%20relative%3D%221%22%20as%3D%22geometry%22%3E%3CmxPoint%20x%3D%2285%22%20y%3D%22249%22%20as%3D%22targetPoint%22%2F%3E%3C%2FmxGeometry%3E%3C%2FmxCell%3E%3CmxCell%20id%3D%2212%22%20style%3D%22edgeStyle%3DorthogonalEdgeStyle%3Bshape%3Dconnector%3Brounded%3D0%3BorthogonalLoop%3D1%3BjettySize%3Dauto%3Bhtml%3D1%3BexitX%3D0%3BexitY%3D0.75%3BexitDx%3D0%3BexitDy%3D0%3BexitPerimeter%3D0%3BstrokeColor%3Ddefault%3Balign%3Dcenter%3BverticalAlign%3Dmiddle%3BfontFamily%3DHelvetica%3BfontSize%3D11%3BfontColor%3Ddefault%3BlabelBackgroundColor%3Ddefault%3BendArrow%3Dnone%3BendFill%3D0%3B%22%20edge%3D%221%22%20parent%3D%222%22%20source%3D%2213%22%3E%3CmxGeometry%20relative%3D%221%22%20as%3D%22geometry%22%3E%3CmxPoint%20x%3D%22465%22%20y%3D%22278.8333333333335%22%20as%3D%22targetPoint%22%2F%3E%3C%2FmxGeometry%3E%3C%2FmxCell%3E%3CmxCell%20id%3D%2213%22%20value%3D%22%26lt%3Bp%20style%3D%26quot%3Bline-height%3A%20110%25%3B%26quot%3B%26gt%3B%26lt%3Bbr%26gt%3B%26lt%3B%2Fp%26gt%3B%22%20style%3D%22verticalLabelPosition%3Dbottom%3Bshadow%3D0%3Bdashed%3D0%3Balign%3Dcenter%3Bhtml%3D1%3BverticalAlign%3Dtop%3Bshape%3Dmxgraph.electrical.logic_gates.logic_gate%3Boperation%3Dand%3BspacingTop%3D-20%3B%22%20vertex%3D%221%22%20parent%3D%222%22%3E%3CmxGeometry%20x%3D%22485%22%20y%3D%22234%22%20width%3D%22100%22%20height%3D%2260%22%20as%3D%22geometry%22%2F%3E%3C%2FmxCell%3E%3CmxCell%20id%3D%2214%22%20style%3D%22edgeStyle%3DorthogonalEdgeStyle%3Brounded%3D0%3BorthogonalLoop%3D1%3BjettySize%3Dauto%3Bhtml%3D1%3BexitX%3D0%3BexitY%3D0.25%3BexitDx%3D0%3BexitDy%3D0%3BexitPerimeter%3D0%3BendArrow%3Dnone%3BendFill%3D0%3BentryX%3D0.5%3BentryY%3D1%3BentryDx%3D0%3BentryDy%3D0%3B%22%20edge%3D%221%22%20parent%3D%222%22%20source%3D%2216%22%20target%3D%2236%22%3E%3CmxGeometry%20relative%3D%221%22%20as%3D%22geometry%22%3E%3CmxPoint%20x%3D%22345%22%20y%3D%22338.8333333333335%22%20as%3D%22targetPoint%22%2F%3E%3C%2FmxGeometry%3E%3C%2FmxCell%3E%3CmxCell%20id%3D%2215%22%20style%3D%22edgeStyle%3DorthogonalEdgeStyle%3Bshape%3Dconnector%3Brounded%3D0%3BorthogonalLoop%3D1%3BjettySize%3Dauto%3Bhtml%3D1%3BexitX%3D0%3BexitY%3D0.75%3BexitDx%3D0%3BexitDy%3D0%3BexitPerimeter%3D0%3BstrokeColor%3Ddefault%3Balign%3Dcenter%3BverticalAlign%3Dmiddle%3BfontFamily%3DHelvetica%3BfontSize%3D11%3BfontColor%3Ddefault%3BlabelBackgroundColor%3Ddefault%3BendArrow%3Dnone%3BendFill%3D0%3B%22%20edge%3D%221%22%20parent%3D%222%22%20source%3D%2216%22%3E%3CmxGeometry%20relative%3D%221%22%20as%3D%22geometry%22%3E%3CmxPoint%20x%3D%22465%22%20y%3D%22368.8333333333335%22%20as%3D%22targetPoint%22%2F%3E%3C%2FmxGeometry%3E%3C%2FmxCell%3E%3CmxCell%20id%3D%2216%22%20value%3D%22%26lt%3Bp%20style%3D%26quot%3Bline-height%3A%20110%25%3B%26quot%3B%26gt%3B%26lt%3Bbr%26gt%3B%26lt%3B%2Fp%26gt%3B%22%20style%3D%22verticalLabelPosition%3Dbottom%3Bshadow%3D0%3Bdashed%3D0%3Balign%3Dcenter%3Bhtml%3D1%3BverticalAlign%3Dtop%3Bshape%3Dmxgraph.electrical.logic_gates.logic_gate%3Boperation%3Dand%3BspacingTop%3D-20%3B%22%20vertex%3D%221%22%20parent%3D%222%22%3E%3CmxGeometry%20x%3D%22485%22%20y%3D%22324%22%20width%3D%22100%22%20height%3D%2260%22%20as%3D%22geometry%22%2F%3E%3C%2FmxCell%3E%3CmxCell%20id%3D%2217%22%20style%3D%22rounded%3D0%3BorthogonalLoop%3D1%3BjettySize%3Dauto%3Bhtml%3D1%3BexitX%3D0%3BexitY%3D0.25%3BexitDx%3D0%3BexitDy%3D0%3BexitPerimeter%3D0%3BedgeStyle%3DorthogonalEdgeStyle%3BendArrow%3Dnone%3BendFill%3D0%3BentryX%3D0.5%3BentryY%3D1%3BentryDx%3D0%3BentryDy%3D0%3B%22%20edge%3D%221%22%20parent%3D%222%22%20source%3D%2219%22%20target%3D%2237%22%3E%3CmxGeometry%20relative%3D%221%22%20as%3D%22geometry%22%3E%3CmxPoint%20x%3D%22305%22%20y%3D%22110%22%20as%3D%22targetPoint%22%2F%3E%3C%2FmxGeometry%3E%3C%2FmxCell%3E%3CmxCell%20id%3D%2218%22%20style%3D%22edgeStyle%3DorthogonalEdgeStyle%3Bshape%3Dconnector%3Brounded%3D0%3BorthogonalLoop%3D1%3BjettySize%3Dauto%3Bhtml%3D1%3BexitX%3D0%3BexitY%3D0.75%3BexitDx%3D0%3BexitDy%3D0%3BexitPerimeter%3D0%3BstrokeColor%3Ddefault%3Balign%3Dcenter%3BverticalAlign%3Dmiddle%3BfontFamily%3DHelvetica%3BfontSize%3D11%3BfontColor%3Ddefault%3BlabelBackgroundColor%3Ddefault%3BendArrow%3Dnone%3BendFill%3D0%3B%22%20edge%3D%221%22%20parent%3D%222%22%20source%3D%2219%22%3E%3CmxGeometry%20relative%3D%221%22%20as%3D%22geometry%22%3E%3CmxPoint%20x%3D%22465%22%20y%3D%22438.8333333333335%22%20as%3D%22targetPoint%22%2F%3E%3C%2FmxGeometry%3E%3C%2FmxCell%3E%3CmxCell%20id%3D%2219%22%20value%3D%22%26lt%3Bp%20style%3D%26quot%3Bline-height%3A%20110%25%3B%26quot%3B%26gt%3B%26lt%3Bbr%26gt%3B%26lt%3B%2Fp%26gt%3B%22%20style%3D%22verticalLabelPosition%3Dbottom%3Bshadow%3D0%3Bdashed%3D0%3Balign%3Dcenter%3Bhtml%3D1%3BverticalAlign%3Dtop%3Bshape%3Dmxgraph.electrical.logic_gates.logic_gate%3Boperation%3Dand%3BspacingTop%3D-20%3B%22%20vertex%3D%221%22%20parent%3D%222%22%3E%3CmxGeometry%20x%3D%22485%22%20y%3D%22394%22%20width%3D%22100%22%20height%3D%2260%22%20as%3D%22geometry%22%2F%3E%3C%2FmxCell%3E%3CmxCell%20id%3D%2220%22%20style%3D%22edgeStyle%3DorthogonalEdgeStyle%3Brounded%3D0%3BorthogonalLoop%3D1%3BjettySize%3Dauto%3Bhtml%3D1%3BexitX%3D0%3BexitY%3D0.25%3BexitDx%3D0%3BexitDy%3D0%3BexitPerimeter%3D0%3BendArrow%3Dnone%3BendFill%3D0%3B%22%20edge%3D%221%22%20parent%3D%222%22%20source%3D%2222%22%3E%3CmxGeometry%20relative%3D%221%22%20as%3D%22geometry%22%3E%3CmxPoint%20x%3D%22265%22%20y%3D%22180%22%20as%3D%22targetPoint%22%2F%3E%3C%2FmxGeometry%3E%3C%2FmxCell%3E%3CmxCell%20id%3D%2221%22%20style%3D%22edgeStyle%3DorthogonalEdgeStyle%3Bshape%3Dconnector%3Brounded%3D0%3BorthogonalLoop%3D1%3BjettySize%3Dauto%3Bhtml%3D1%3BexitX%3D0%3BexitY%3D0.75%3BexitDx%3D0%3BexitDy%3D0%3BexitPerimeter%3D0%3BstrokeColor%3Ddefault%3Balign%3Dcenter%3BverticalAlign%3Dmiddle%3BfontFamily%3DHelvetica%3BfontSize%3D11%3BfontColor%3Ddefault%3BlabelBackgroundColor%3Ddefault%3BendArrow%3Dnone%3BendFill%3D0%3B%22%20edge%3D%221%22%20parent%3D%222%22%20source%3D%2222%22%3E%3CmxGeometry%20relative%3D%221%22%20as%3D%22geometry%22%3E%3CmxPoint%20x%3D%22465%22%20y%3D%22508.8333333333335%22%20as%3D%22targetPoint%22%2F%3E%3C%2FmxGeometry%3E%3C%2FmxCell%3E%3CmxCell%20id%3D%2222%22%20value%3D%22%26lt%3Bp%20style%3D%26quot%3Bline-height%3A%20110%25%3B%26quot%3B%26gt%3B%26lt%3Bbr%26gt%3B%26lt%3B%2Fp%26gt%3B%22%20style%3D%22verticalLabelPosition%3Dbottom%3Bshadow%3D0%3Bdashed%3D0%3Balign%3Dcenter%3Bhtml%3D1%3BverticalAlign%3Dtop%3Bshape%3Dmxgraph.electrical.logic_gates.logic_gate%3Boperation%3Dand%3BspacingTop%3D-20%3B%22%20vertex%3D%221%22%20parent%3D%222%22%3E%3CmxGeometry%20x%3D%22485%22%20y%3D%22464%22%20width%3D%22100%22%20height%3D%2260%22%20as%3D%22geometry%22%2F%3E%3C%2FmxCell%3E%3CmxCell%20id%3D%2223%22%20style%3D%22edgeStyle%3DorthogonalEdgeStyle%3Brounded%3D0%3BorthogonalLoop%3D1%3BjettySize%3Dauto%3Bhtml%3D1%3BexitX%3D0%3BexitY%3D0.25%3BexitDx%3D0%3BexitDy%3D0%3BexitPerimeter%3D0%3BendArrow%3Dnone%3BendFill%3D0%3B%22%20edge%3D%221%22%20parent%3D%222%22%20source%3D%2225%22%3E%3CmxGeometry%20relative%3D%221%22%20as%3D%22geometry%22%3E%3CmxPoint%20x%3D%22225%22%20y%3D%22250%22%20as%3D%22targetPoint%22%2F%3E%3C%2FmxGeometry%3E%3C%2FmxCell%3E%3CmxCell%20id%3D%2224%22%20style%3D%22edgeStyle%3DorthogonalEdgeStyle%3Bshape%3Dconnector%3Brounded%3D0%3BorthogonalLoop%3D1%3BjettySize%3Dauto%3Bhtml%3D1%3BexitX%3D0%3BexitY%3D0.75%3BexitDx%3D0%3BexitDy%3D0%3BexitPerimeter%3D0%3BstrokeColor%3Ddefault%3Balign%3Dcenter%3BverticalAlign%3Dmiddle%3BfontFamily%3DHelvetica%3BfontSize%3D11%3BfontColor%3Ddefault%3BlabelBackgroundColor%3Ddefault%3BendArrow%3Dnone%3BendFill%3D0%3B%22%20edge%3D%221%22%20parent%3D%222%22%20source%3D%2225%22%3E%3CmxGeometry%20relative%3D%221%22%20as%3D%22geometry%22%3E%3CmxPoint%20x%3D%22465%22%20y%3D%22578.8333333333335%22%20as%3D%22targetPoint%22%2F%3E%3C%2FmxGeometry%3E%3C%2FmxCell%3E%3CmxCell%20id%3D%2225%22%20value%3D%22%26lt%3Bp%20style%3D%26quot%3Bline-height%3A%20110%25%3B%26quot%3B%26gt%3B%26lt%3Bbr%26gt%3B%26lt%3B%2Fp%26gt%3B%22%20style%3D%22verticalLabelPosition%3Dbottom%3Bshadow%3D0%3Bdashed%3D0%3Balign%3Dcenter%3Bhtml%3D1%3BverticalAlign%3Dtop%3Bshape%3Dmxgraph.electrical.logic_gates.logic_gate%3Boperation%3Dand%3BspacingTop%3D-20%3B%22%20vertex%3D%221%22%20parent%3D%222%22%3E%3CmxGeometry%20x%3D%22485%22%20y%3D%22534%22%20width%3D%22100%22%20height%3D%2260%22%20as%3D%22geometry%22%2F%3E%3C%2FmxCell%3E%3CmxCell%20id%3D%2226%22%20value%3D%22%26lt%3Bp%26gt%3B%26lt%3Bfont%20style%3D%26quot%3Bfont-size%3A%2016px%3B%26quot%3B%20face%3D%26quot%3BHelvetica%26quot%3B%26gt%3Ba%5B0%5D%26lt%3B%2Ffont%26gt%3B%26lt%3B%2Fp%26gt%3B%22%20style%3D%22text%3Bhtml%3D1%3Balign%3Dcenter%3BverticalAlign%3Dmiddle%3Bresizable%3D0%3Bpoints%3D%5B%5D%3Bautosize%3D1%3BstrokeColor%3Dnone%3BfillColor%3Dnone%3B%22%20vertex%3D%221%22%20parent%3D%222%22%3E%3CmxGeometry%20x%3D%22578%22%20y%3D%2224%22%20width%3D%2250%22%20height%3D%2260%22%20as%3D%22geometry%22%2F%3E%3C%2FmxCell%3E%3CmxCell%20id%3D%2227%22%20value%3D%22%26lt%3Bp%26gt%3B%26lt%3Bfont%20style%3D%26quot%3Bfont-size%3A%2016px%3B%26quot%3B%20face%3D%26quot%3BHelvetica%26quot%3B%26gt%3Ba%5B1%26lt%3B%2Ffont%26gt%3B%26lt%3Bspan%20style%3D%26quot%3Bfont-size%3A%2016px%3B%20background-color%3A%20initial%3B%26quot%3B%26gt%3B%5D%26lt%3B%2Fspan%26gt%3B%26lt%3B%2Fp%26gt%3B%22%20style%3D%22text%3Bhtml%3D1%3Balign%3Dcenter%3BverticalAlign%3Dmiddle%3Bresizable%3D0%3Bpoints%3D%5B%5D%3Bautosize%3D1%3BstrokeColor%3Dnone%3BfillColor%3Dnone%3B%22%20vertex%3D%221%22%20parent%3D%222%22%3E%3CmxGeometry%20x%3D%22578%22%20y%3D%2294%22%20width%3D%2250%22%20height%3D%2260%22%20as%3D%22geometry%22%2F%3E%3C%2FmxCell%3E%3CmxCell%20id%3D%2228%22%20value%3D%22%26lt%3Bp%26gt%3B%26lt%3Bfont%20style%3D%26quot%3Bfont-size%3A%2016px%3B%26quot%3B%20face%3D%26quot%3BHelvetica%26quot%3B%26gt%3Ba%5B2%5D%26lt%3B%2Ffont%26gt%3B%26lt%3B%2Fp%26gt%3B%22%20style%3D%22text%3Bhtml%3D1%3Balign%3Dcenter%3BverticalAlign%3Dmiddle%3Bresizable%3D0%3Bpoints%3D%5B%5D%3Bautosize%3D1%3BstrokeColor%3Dnone%3BfillColor%3Dnone%3B%22%20vertex%3D%221%22%20parent%3D%222%22%3E%3CmxGeometry%20x%3D%22578%22%20y%3D%22164%22%20width%3D%2250%22%20height%3D%2260%22%20as%3D%22geometry%22%2F%3E%3C%2FmxCell%3E%3CmxCell%20id%3D%2229%22%20value%3D%22%26lt%3Bp%26gt%3B%26lt%3Bfont%20style%3D%26quot%3Bfont-size%3A%2016px%3B%26quot%3B%20face%3D%26quot%3BHelvetica%26quot%3B%26gt%3Ba%5B3%26lt%3B%2Ffont%26gt%3B%26lt%3Bspan%20style%3D%26quot%3Bfont-size%3A%2016px%3B%20background-color%3A%20initial%3B%26quot%3B%26gt%3B%5D%26lt%3B%2Fspan%26gt%3B%26lt%3B%2Fp%26gt%3B%22%20style%3D%22text%3Bhtml%3D1%3Balign%3Dcenter%3BverticalAlign%3Dmiddle%3Bresizable%3D0%3Bpoints%3D%5B%5D%3Bautosize%3D1%3BstrokeColor%3Dnone%3BfillColor%3Dnone%3B%22%20vertex%3D%221%22%20parent%3D%222%22%3E%3CmxGeometry%20x%3D%22578%22%20y%3D%22234%22%20width%3D%2250%22%20height%3D%2260%22%20as%3D%22geometry%22%2F%3E%3C%2FmxCell%3E%3CmxCell%20id%3D%2230%22%20value%3D%22%26lt%3Bp%26gt%3B%26lt%3Bfont%20style%3D%26quot%3Bfont-size%3A%2016px%3B%26quot%3B%20face%3D%26quot%3BHelvetica%26quot%3B%26gt%3Bb%5B0%5D%26lt%3B%2Ffont%26gt%3B%26lt%3B%2Fp%26gt%3B%22%20style%3D%22text%3Bhtml%3D1%3Balign%3Dcenter%3BverticalAlign%3Dmiddle%3Bresizable%3D0%3Bpoints%3D%5B%5D%3Bautosize%3D1%3BstrokeColor%3Dnone%3BfillColor%3Dnone%3B%22%20vertex%3D%221%22%20parent%3D%222%22%3E%3CmxGeometry%20x%3D%22578%22%20y%3D%22324%22%20width%3D%2250%22%20height%3D%2260%22%20as%3D%22geometry%22%2F%3E%3C%2FmxCell%3E%3CmxCell%20id%3D%2231%22%20value%3D%22%26lt%3Bp%26gt%3B%26lt%3Bfont%20style%3D%26quot%3Bfont-size%3A%2016px%3B%26quot%3B%20face%3D%26quot%3BHelvetica%26quot%3B%26gt%3Bb%5B1%26lt%3B%2Ffont%26gt%3B%26lt%3Bspan%20style%3D%26quot%3Bfont-size%3A%2016px%3B%20background-color%3A%20initial%3B%26quot%3B%26gt%3B%5D%26lt%3B%2Fspan%26gt%3B%26lt%3B%2Fp%26gt%3B%22%20style%3D%22text%3Bhtml%3D1%3Balign%3Dcenter%3BverticalAlign%3Dmiddle%3Bresizable%3D0%3Bpoints%3D%5B%5D%3Bautosize%3D1%3BstrokeColor%3Dnone%3BfillColor%3Dnone%3B%22%20vertex%3D%221%22%20parent%3D%222%22%3E%3CmxGeometry%20x%3D%22578%22%20y%3D%22394%22%20width%3D%2250%22%20height%3D%2260%22%20as%3D%22geometry%22%2F%3E%3C%2FmxCell%3E%3CmxCell%20id%3D%2232%22%20value%3D%22%26lt%3Bp%26gt%3B%26lt%3Bfont%20style%3D%26quot%3Bfont-size%3A%2016px%3B%26quot%3B%20face%3D%26quot%3BHelvetica%26quot%3B%26gt%3Bb%5B2%5D%26lt%3B%2Ffont%26gt%3B%26lt%3B%2Fp%26gt%3B%22%20style%3D%22text%3Bhtml%3D1%3Balign%3Dcenter%3BverticalAlign%3Dmiddle%3Bresizable%3D0%3Bpoints%3D%5B%5D%3Bautosize%3D1%3BstrokeColor%3Dnone%3BfillColor%3Dnone%3B%22%20vertex%3D%221%22%20parent%3D%222%22%3E%3CmxGeometry%20x%3D%22578%22%20y%3D%22464%22%20width%3D%2250%22%20height%3D%2260%22%20as%3D%22geometry%22%2F%3E%3C%2FmxCell%3E%3CmxCell%20id%3D%2233%22%20value%3D%22%26lt%3Bp%26gt%3B%26lt%3Bfont%20style%3D%26quot%3Bfont-size%3A%2016px%3B%26quot%3B%20face%3D%26quot%3BHelvetica%26quot%3B%26gt%3Bb%5B3%26lt%3B%2Ffont%26gt%3B%26lt%3Bspan%20style%3D%26quot%3Bfont-size%3A%2016px%3B%20background-color%3A%20initial%3B%26quot%3B%26gt%3B%5D%26lt%3B%2Fspan%26gt%3B%26lt%3B%2Fp%26gt%3B%22%20style%3D%22text%3Bhtml%3D1%3Balign%3Dcenter%3BverticalAlign%3Dmiddle%3Bresizable%3D0%3Bpoints%3D%5B%5D%3Bautosize%3D1%3BstrokeColor%3Dnone%3BfillColor%3Dnone%3B%22%20vertex%3D%221%22%20parent%3D%222%22%3E%3CmxGeometry%20x%3D%22578%22%20y%3D%22534%22%20width%3D%2250%22%20height%3D%2260%22%20as%3D%22geometry%22%2F%3E%3C%2FmxCell%3E%3CmxCell%20id%3D%2234%22%20value%3D%22%22%20style%3D%22edgeStyle%3DorthogonalEdgeStyle%3Brounded%3D0%3BorthogonalLoop%3D1%3BjettySize%3Dauto%3Bhtml%3D1%3BexitX%3D0%3BexitY%3D0.25%3BexitDx%3D0%3BexitDy%3D0%3BexitPerimeter%3D0%3BendArrow%3Dnone%3BendFill%3D0%3B%22%20edge%3D%221%22%20parent%3D%222%22%20source%3D%224%22%20target%3D%2236%22%3E%3CmxGeometry%20relative%3D%221%22%20as%3D%22geometry%22%3E%3CmxPoint%20x%3D%2285%22%20y%3D%2239%22%20as%3D%22targetPoint%22%2F%3E%3CmxPoint%20x%3D%22485%22%20y%3D%2239%22%20as%3D%22sourcePoint%22%2F%3E%3C%2FmxGeometry%3E%3C%2FmxCell%3E%3CmxCell%20id%3D%2235%22%20style%3D%22edgeStyle%3DorthogonalEdgeStyle%3Bshape%3Dconnector%3Brounded%3D0%3BorthogonalLoop%3D1%3BjettySize%3Dauto%3Bhtml%3D1%3BexitX%3D0%3BexitY%3D0.5%3BexitDx%3D0%3BexitDy%3D0%3BstrokeColor%3Ddefault%3Balign%3Dcenter%3BverticalAlign%3Dmiddle%3BfontFamily%3DHelvetica%3BfontSize%3D11%3BfontColor%3Ddefault%3BlabelBackgroundColor%3Ddefault%3BendArrow%3Dnone%3BendFill%3D0%3B%22%20edge%3D%221%22%20parent%3D%222%22%20source%3D%2236%22%3E%3CmxGeometry%20relative%3D%221%22%20as%3D%22geometry%22%3E%3CmxPoint%20x%3D%2285%22%20y%3D%2239%22%20as%3D%22targetPoint%22%2F%3E%3C%2FmxGeometry%3E%3C%2FmxCell%3E%3CmxCell%20id%3D%2236%22%20value%3D%22%22%20style%3D%22shape%3Dellipse%3BfillColor%3D%23000000%3BstrokeColor%3Dnone%3Bhtml%3D1%3Bsketch%3D0%3BfontFamily%3DHelvetica%3BfontSize%3D11%3BfontColor%3Ddefault%3BlabelBackgroundColor%3Ddefault%3B%22%20vertex%3D%221%22%20parent%3D%222%22%3E%3CmxGeometry%20x%3D%22340%22%20y%3D%2234%22%20width%3D%2210%22%20height%3D%2210%22%20as%3D%22geometry%22%2F%3E%3C%2FmxCell%3E%3CmxCell%20id%3D%2237%22%20value%3D%22%22%20style%3D%22shape%3Dellipse%3BfillColor%3D%23000000%3BstrokeColor%3Dnone%3Bhtml%3D1%3Bsketch%3D0%3BfontFamily%3DHelvetica%3BfontSize%3D11%3BfontColor%3Ddefault%3BlabelBackgroundColor%3Ddefault%3B%22%20vertex%3D%221%22%20parent%3D%222%22%3E%3CmxGeometry%20x%3D%22300%22%20y%3D%22103%22%20width%3D%2210%22%20height%3D%2210%22%20as%3D%22geometry%22%2F%3E%3C%2FmxCell%3E%3CmxCell%20id%3D%2238%22%20value%3D%22%22%20style%3D%22shape%3Dellipse%3BfillColor%3D%23000000%3BstrokeColor%3Dnone%3Bhtml%3D1%3Bsketch%3D0%3BfontFamily%3DHelvetica%3BfontSize%3D11%3BfontColor%3Ddefault%3BlabelBackgroundColor%3Ddefault%3B%22%20vertex%3D%221%22%20parent%3D%222%22%3E%3CmxGeometry%20x%3D%22260%22%20y%3D%22174%22%20width%3D%2210%22%20height%3D%2210%22%20as%3D%22geometry%22%2F%3E%3C%2FmxCell%3E%3CmxCell%20id%3D%2239%22%20value%3D%22%22%20style%3D%22shape%3Dellipse%3BfillColor%3D%23000000%3BstrokeColor%3Dnone%3Bhtml%3D1%3Bsketch%3D0%3BfontFamily%3DHelvetica%3BfontSize%3D11%3BfontColor%3Ddefault%3BlabelBackgroundColor%3Ddefault%3B%22%20vertex%3D%221%22%20parent%3D%222%22%3E%3CmxGeometry%20x%3D%22220%22%20y%3D%22243%22%20width%3D%2210%22%20height%3D%2210%22%20as%3D%22geometry%22%2F%3E%3C%2FmxCell%3E%3CmxCell%20id%3D%2240%22%20value%3D%22%22%20style%3D%22endArrow%3Dnone%3Bhtml%3D1%3Brounded%3D0%3BstrokeColor%3Ddefault%3Balign%3Dcenter%3BverticalAlign%3Dmiddle%3BfontFamily%3DHelvetica%3BfontSize%3D11%3BfontColor%3Ddefault%3BlabelBackgroundColor%3Ddefault%3BedgeStyle%3DorthogonalEdgeStyle%3B%22%20edge%3D%221%22%20parent%3D%222%22%3E%3CmxGeometry%20width%3D%2250%22%20height%3D%2250%22%20relative%3D%221%22%20as%3D%22geometry%22%3E%3CmxPoint%20x%3D%2285%22%20y%3D%22620%22%20as%3D%22sourcePoint%22%2F%3E%3CmxPoint%20x%3D%22465%22%20y%3D%22370%22%20as%3D%22targetPoint%22%2F%3E%3C%2FmxGeometry%3E%3C%2FmxCell%3E%3CmxCell%20id%3D%2241%22%20value%3D%22%22%20style%3D%22endArrow%3Dnone%3Bhtml%3D1%3Brounded%3D0%3BstrokeColor%3Ddefault%3Balign%3Dcenter%3BverticalAlign%3Dmiddle%3BfontFamily%3DHelvetica%3BfontSize%3D11%3BfontColor%3Ddefault%3BlabelBackgroundColor%3Ddefault%3BedgeStyle%3DorthogonalEdgeStyle%3B%22%20edge%3D%221%22%20parent%3D%222%22%3E%3CmxGeometry%20width%3D%2250%22%20height%3D%2250%22%20relative%3D%221%22%20as%3D%22geometry%22%3E%3CmxPoint%20x%3D%22145%22%20y%3D%22620%22%20as%3D%22sourcePoint%22%2F%3E%3CmxPoint%20x%3D%22465%22%20y%3D%2270%22%20as%3D%22targetPoint%22%2F%3E%3CArray%20as%3D%22points%22%3E%3CmxPoint%20x%3D%22145%22%20y%3D%22300%22%2F%3E%3C%2FArray%3E%3C%2FmxGeometry%3E%3C%2FmxCell%3E%3CmxCell%20id%3D%2242%22%20value%3D%22%22%20style%3D%22verticalLabelPosition%3Dbottom%3Bshadow%3D0%3Bdashed%3D0%3Balign%3Dcenter%3Bhtml%3D1%3BverticalAlign%3Dtop%3Bshape%3Dmxgraph.electrical.logic_gates.inverter_2%3BfontFamily%3DHelvetica%3BfontSize%3D11%3BfontColor%3Ddefault%3BlabelBackgroundColor%3Ddefault%3Brotation%3D-90%3B%22%20vertex%3D%221%22%20parent%3D%222%22%3E%3CmxGeometry%20x%3D%2295%22%20y%3D%22420%22%20width%3D%22100%22%20height%3D%2260%22%20as%3D%22geometry%22%2F%3E%3C%2FmxCell%3E%3CmxCell%20id%3D%2243%22%20value%3D%22%22%20style%3D%22shape%3Dellipse%3BfillColor%3D%23000000%3BstrokeColor%3Dnone%3Bhtml%3D1%3Bsketch%3D0%3BfontFamily%3DHelvetica%3BfontSize%3D11%3BfontColor%3Ddefault%3BlabelBackgroundColor%3Ddefault%3B%22%20vertex%3D%221%22%20parent%3D%222%22%3E%3CmxGeometry%20x%3D%22460%22%20y%3D%22134%22%20width%3D%2210%22%20height%3D%2210%22%20as%3D%22geometry%22%2F%3E%3C%2FmxCell%3E%3CmxCell%20id%3D%2244%22%20value%3D%22%22%20style%3D%22shape%3Dellipse%3BfillColor%3D%23000000%3BstrokeColor%3Dnone%3Bhtml%3D1%3Bsketch%3D0%3BfontFamily%3DHelvetica%3BfontSize%3D11%3BfontColor%3Ddefault%3BlabelBackgroundColor%3Ddefault%3B%22%20vertex%3D%221%22%20parent%3D%222%22%3E%3CmxGeometry%20x%3D%22461%22%20y%3D%22204%22%20width%3D%2210%22%20height%3D%2210%22%20as%3D%22geometry%22%2F%3E%3C%2FmxCell%3E%3CmxCell%20id%3D%2245%22%20value%3D%22%22%20style%3D%22shape%3Dellipse%3BfillColor%3D%23000000%3BstrokeColor%3Dnone%3Bhtml%3D1%3Bsketch%3D0%3BfontFamily%3DHelvetica%3BfontSize%3D11%3BfontColor%3Ddefault%3BlabelBackgroundColor%3Ddefault%3B%22%20vertex%3D%221%22%20parent%3D%222%22%3E%3CmxGeometry%20x%3D%22460%22%20y%3D%22274%22%20width%3D%2210%22%20height%3D%2210%22%20as%3D%22geometry%22%2F%3E%3C%2FmxCell%3E%3CmxCell%20id%3D%2246%22%20value%3D%22%22%20style%3D%22shape%3Dellipse%3BfillColor%3D%23000000%3BstrokeColor%3Dnone%3Bhtml%3D1%3Bsketch%3D0%3BfontFamily%3DHelvetica%3BfontSize%3D11%3BfontColor%3Ddefault%3BlabelBackgroundColor%3Ddefault%3B%22%20vertex%3D%221%22%20parent%3D%222%22%3E%3CmxGeometry%20x%3D%22461%22%20y%3D%22434%22%20width%3D%2210%22%20height%3D%2210%22%20as%3D%22geometry%22%2F%3E%3C%2FmxCell%3E%3CmxCell%20id%3D%2247%22%20value%3D%22%22%20style%3D%22shape%3Dellipse%3BfillColor%3D%23000000%3BstrokeColor%3Dnone%3Bhtml%3D1%3Bsketch%3D0%3BfontFamily%3DHelvetica%3BfontSize%3D11%3BfontColor%3Ddefault%3BlabelBackgroundColor%3Ddefault%3B%22%20vertex%3D%221%22%20parent%3D%222%22%3E%3CmxGeometry%20x%3D%22462%22%20y%3D%22504%22%20width%3D%2210%22%20height%3D%2210%22%20as%3D%22geometry%22%2F%3E%3C%2FmxCell%3E%3CmxCell%20id%3D%2248%22%20value%3D%22%22%20style%3D%22shape%3Dellipse%3BfillColor%3D%23000000%3BstrokeColor%3Dnone%3Bhtml%3D1%3Bsketch%3D0%3BfontFamily%3DHelvetica%3BfontSize%3D11%3BfontColor%3Ddefault%3BlabelBackgroundColor%3Ddefault%3B%22%20vertex%3D%221%22%20parent%3D%222%22%3E%3CmxGeometry%20x%3D%22461%22%20y%3D%22574%22%20width%3D%2210%22%20height%3D%2210%22%20as%3D%22geometry%22%2F%3E%3C%2FmxCell%3E%3CmxCell%20id%3D%2249%22%20value%3D%22%26lt%3Bp%26gt%3B%26lt%3Bfont%20style%3D%26quot%3Bfont-size%3A%2016px%3B%26quot%3B%20face%3D%26quot%3BHelvetica%26quot%3B%26gt%3Bin%5B0%5D%26lt%3B%2Ffont%26gt%3B%26lt%3B%2Fp%26gt%3B%22%20style%3D%22text%3Bhtml%3D1%3Balign%3Dcenter%3BverticalAlign%3Dmiddle%3Bresizable%3D0%3Bpoints%3D%5B%5D%3Bautosize%3D1%3BstrokeColor%3Dnone%3BfillColor%3Dnone%3B%22%20vertex%3D%221%22%20parent%3D%222%22%3E%3CmxGeometry%20x%3D%2235%22%20y%3D%229%22%20width%3D%2250%22%20height%3D%2260%22%20as%3D%22geometry%22%2F%3E%3C%2FmxCell%3E%3CmxCell%20id%3D%2250%22%20value%3D%22%26lt%3Bp%26gt%3B%26lt%3Bfont%20style%3D%26quot%3Bfont-size%3A%2016px%3B%26quot%3B%20face%3D%26quot%3BHelvetica%26quot%3B%26gt%3Bin%5B1%5D%26lt%3B%2Ffont%26gt%3B%26lt%3B%2Fp%26gt%3B%22%20style%3D%22text%3Bhtml%3D1%3Balign%3Dcenter%3BverticalAlign%3Dmiddle%3Bresizable%3D0%3Bpoints%3D%5B%5D%3Bautosize%3D1%3BstrokeColor%3Dnone%3BfillColor%3Dnone%3B%22%20vertex%3D%221%22%20parent%3D%222%22%3E%3CmxGeometry%20x%3D%2235%22%20y%3D%2278%22%20width%3D%2250%22%20height%3D%2260%22%20as%3D%22geometry%22%2F%3E%3C%2FmxCell%3E%3CmxCell%20id%3D%2251%22%20value%3D%22%26lt%3Bp%26gt%3B%26lt%3Bfont%20style%3D%26quot%3Bfont-size%3A%2016px%3B%26quot%3B%20face%3D%26quot%3BHelvetica%26quot%3B%26gt%3Bin%5B2%5D%26lt%3B%2Ffont%26gt%3B%26lt%3B%2Fp%26gt%3B%22%20style%3D%22text%3Bhtml%3D1%3Balign%3Dcenter%3BverticalAlign%3Dmiddle%3Bresizable%3D0%3Bpoints%3D%5B%5D%3Bautosize%3D1%3BstrokeColor%3Dnone%3BfillColor%3Dnone%3B%22%20vertex%3D%221%22%20parent%3D%222%22%3E%3CmxGeometry%20x%3D%2235%22%20y%3D%22149%22%20width%3D%2250%22%20height%3D%2260%22%20as%3D%22geometry%22%2F%3E%3C%2FmxCell%3E%3CmxCell%20id%3D%2252%22%20value%3D%22%26lt%3Bp%26gt%3B%26lt%3Bfont%20style%3D%26quot%3Bfont-size%3A%2016px%3B%26quot%3B%20face%3D%26quot%3BHelvetica%26quot%3B%26gt%3Bin%5B3%5D%26lt%3B%2Ffont%26gt%3B%26lt%3B%2Fp%26gt%3B%22%20style%3D%22text%3Bhtml%3D1%3Balign%3Dcenter%3BverticalAlign%3Dmiddle%3Bresizable%3D0%3Bpoints%3D%5B%5D%3Bautosize%3D1%3BstrokeColor%3Dnone%3BfillColor%3Dnone%3B%22%20vertex%3D%221%22%20parent%3D%222%22%3E%3CmxGeometry%20x%3D%2235%22%20y%3D%22218%22%20width%3D%2250%22%20height%3D%2260%22%20as%3D%22geometry%22%2F%3E%3C%2FmxCell%3E%3CmxCell%20id%3D%2253%22%20value%3D%22%26lt%3Bp%26gt%3B%26lt%3Bspan%20style%3D%26quot%3Bfont-size%3A%2016px%3B%26quot%3B%26gt%3Bsel%26lt%3B%2Fspan%26gt%3B%26lt%3B%2Fp%26gt%3B%22%20style%3D%22text%3Bhtml%3D1%3Balign%3Dcenter%3BverticalAlign%3Dmiddle%3Bresizable%3D0%3Bpoints%3D%5B%5D%3Bautosize%3D1%3BstrokeColor%3Dnone%3BfillColor%3Dnone%3B%22%20vertex%3D%221%22%20parent%3D%222%22%3E%3CmxGeometry%20x%3D%2240%22%20y%3D%22589%22%20width%3D%2240%22%20height%3D%2260%22%20as%3D%22geometry%22%2F%3E%3C%2FmxCell%3E%3CmxCell%20id%3D%2254%22%20value%3D%22%22%20style%3D%22rounded%3D0%3BwhiteSpace%3Dwrap%3Bhtml%3D1%3BfontFamily%3DHelvetica%3BfontSize%3D11%3BfontColor%3Ddefault%3BlabelBackgroundColor%3Ddefault%3BfillColor%3Dnone%3B%22%20vertex%3D%221%22%20parent%3D%222%22%3E%3CmxGeometry%20width%3D%22655%22%20height%3D%22660%22%20as%3D%22geometry%22%2F%3E%3C%2FmxCell%3E%3C%2Froot%3E%3C%2FmxGraphModel%3E&lt;/span&gt;" style="rounded=0;whiteSpace=wrap;html=1;fontFamily=Helvetica;fontSize=11;fontColor=default;labelBackgroundColor=default;fillColor=none;" vertex="1" parent="1">
          <mxGeometry x="40" y="400" width="440" height="210" as="geometry" />
        </mxCell>
        <mxCell id="nPTtFJBcblNeartGyqR0-16" value="&lt;span style=&quot;color: rgba(0, 0, 0, 0); font-family: monospace; font-size: 0px; text-align: start; text-wrap: nowrap; background-color: rgb(251, 251, 251);&quot;&gt;%3CmxGraphModel%3E%3Croot%3E%3CmxCell%20id%3D%220%22%2F%3E%3CmxCell%20id%3D%221%22%20parent%3D%220%22%2F%3E%3CmxCell%20id%3D%222%22%20value%3D%22%22%20style%3D%22group%22%20vertex%3D%221%22%20connectable%3D%220%22%20parent%3D%221%22%3E%3CmxGeometry%20x%3D%2240%22%20y%3D%2240%22%20width%3D%22655%22%20height%3D%22660%22%20as%3D%22geometry%22%2F%3E%3C%2FmxCell%3E%3CmxCell%20id%3D%223%22%20style%3D%22edgeStyle%3DorthogonalEdgeStyle%3Bshape%3Dconnector%3Brounded%3D0%3BorthogonalLoop%3D1%3BjettySize%3Dauto%3Bhtml%3D1%3BexitX%3D0%3BexitY%3D0.75%3BexitDx%3D0%3BexitDy%3D0%3BexitPerimeter%3D0%3BstrokeColor%3Ddefault%3Balign%3Dcenter%3BverticalAlign%3Dmiddle%3BfontFamily%3DHelvetica%3BfontSize%3D11%3BfontColor%3Ddefault%3BlabelBackgroundColor%3Ddefault%3BendArrow%3Dnone%3BendFill%3D0%3B%22%20edge%3D%221%22%20parent%3D%222%22%20source%3D%224%22%3E%3CmxGeometry%20relative%3D%221%22%20as%3D%22geometry%22%3E%3CmxPoint%20x%3D%22465%22%20y%3D%2270%22%20as%3D%22targetPoint%22%2F%3E%3C%2FmxGeometry%3E%3C%2FmxCell%3E%3CmxCell%20id%3D%224%22%20value%3D%22%26lt%3Bp%20style%3D%26quot%3Bline-height%3A%20110%25%3B%26quot%3B%26gt%3B%26lt%3Bbr%26gt%3B%26lt%3B%2Fp%26gt%3B%22%20style%3D%22verticalLabelPosition%3Dbottom%3Bshadow%3D0%3Bdashed%3D0%3Balign%3Dcenter%3Bhtml%3D1%3BverticalAlign%3Dtop%3Bshape%3Dmxgraph.electrical.logic_gates.logic_gate%3Boperation%3Dand%3BspacingTop%3D-20%3B%22%20vertex%3D%221%22%20parent%3D%222%22%3E%3CmxGeometry%20x%3D%22485%22%20y%3D%2224%22%20width%3D%22100%22%20height%3D%2260%22%20as%3D%22geometry%22%2F%3E%3C%2FmxCell%3E%3CmxCell%20id%3D%225%22%20style%3D%22edgeStyle%3DorthogonalEdgeStyle%3Bshape%3Dconnector%3Brounded%3D0%3BorthogonalLoop%3D1%3BjettySize%3Dauto%3Bhtml%3D1%3BexitX%3D0%3BexitY%3D0.25%3BexitDx%3D0%3BexitDy%3D0%3BexitPerimeter%3D0%3BstrokeColor%3Ddefault%3Balign%3Dcenter%3BverticalAlign%3Dmiddle%3BfontFamily%3DHelvetica%3BfontSize%3D11%3BfontColor%3Ddefault%3BlabelBackgroundColor%3Ddefault%3BendArrow%3Dnone%3BendFill%3D0%3B%22%20edge%3D%221%22%20parent%3D%222%22%20source%3D%227%22%3E%3CmxGeometry%20relative%3D%221%22%20as%3D%22geometry%22%3E%3CmxPoint%20x%3D%2285%22%20y%3D%22109%22%20as%3D%22targetPoint%22%2F%3E%3C%2FmxGeometry%3E%3C%2FmxCell%3E%3CmxCell%20id%3D%226%22%20style%3D%22edgeStyle%3DorthogonalEdgeStyle%3Bshape%3Dconnector%3Brounded%3D0%3BorthogonalLoop%3D1%3BjettySize%3Dauto%3Bhtml%3D1%3BexitX%3D0%3BexitY%3D0.75%3BexitDx%3D0%3BexitDy%3D0%3BexitPerimeter%3D0%3BstrokeColor%3Ddefault%3Balign%3Dcenter%3BverticalAlign%3Dmiddle%3BfontFamily%3DHelvetica%3BfontSize%3D11%3BfontColor%3Ddefault%3BlabelBackgroundColor%3Ddefault%3BendArrow%3Dnone%3BendFill%3D0%3B%22%20edge%3D%221%22%20parent%3D%222%22%20source%3D%227%22%3E%3CmxGeometry%20relative%3D%221%22%20as%3D%22geometry%22%3E%3CmxPoint%20x%3D%22465%22%20y%3D%22138.83333333333337%22%20as%3D%22targetPoint%22%2F%3E%3C%2FmxGeometry%3E%3C%2FmxCell%3E%3CmxCell%20id%3D%227%22%20value%3D%22%26lt%3Bp%20style%3D%26quot%3Bline-height%3A%20110%25%3B%26quot%3B%26gt%3B%26lt%3Bbr%26gt%3B%26lt%3B%2Fp%26gt%3B%22%20style%3D%22verticalLabelPosition%3Dbottom%3Bshadow%3D0%3Bdashed%3D0%3Balign%3Dcenter%3Bhtml%3D1%3BverticalAlign%3Dtop%3Bshape%3Dmxgraph.electrical.logic_gates.logic_gate%3Boperation%3Dand%3BspacingTop%3D-20%3B%22%20vertex%3D%221%22%20parent%3D%222%22%3E%3CmxGeometry%20x%3D%22485%22%20y%3D%2294%22%20width%3D%22100%22%20height%3D%2260%22%20as%3D%22geometry%22%2F%3E%3C%2FmxCell%3E%3CmxCell%20id%3D%228%22%20style%3D%22edgeStyle%3DorthogonalEdgeStyle%3Bshape%3Dconnector%3Brounded%3D0%3BorthogonalLoop%3D1%3BjettySize%3Dauto%3Bhtml%3D1%3BexitX%3D0%3BexitY%3D0.25%3BexitDx%3D0%3BexitDy%3D0%3BexitPerimeter%3D0%3BstrokeColor%3Ddefault%3Balign%3Dcenter%3BverticalAlign%3Dmiddle%3BfontFamily%3DHelvetica%3BfontSize%3D11%3BfontColor%3Ddefault%3BlabelBackgroundColor%3Ddefault%3BendArrow%3Dnone%3BendFill%3D0%3B%22%20edge%3D%221%22%20parent%3D%222%22%20source%3D%2210%22%3E%3CmxGeometry%20relative%3D%221%22%20as%3D%22geometry%22%3E%3CmxPoint%20x%3D%2285%22%20y%3D%22179%22%20as%3D%22targetPoint%22%2F%3E%3C%2FmxGeometry%3E%3C%2FmxCell%3E%3CmxCell%20id%3D%229%22%20style%3D%22edgeStyle%3DorthogonalEdgeStyle%3Bshape%3Dconnector%3Brounded%3D0%3BorthogonalLoop%3D1%3BjettySize%3Dauto%3Bhtml%3D1%3BexitX%3D0%3BexitY%3D0.75%3BexitDx%3D0%3BexitDy%3D0%3BexitPerimeter%3D0%3BstrokeColor%3Ddefault%3Balign%3Dcenter%3BverticalAlign%3Dmiddle%3BfontFamily%3DHelvetica%3BfontSize%3D11%3BfontColor%3Ddefault%3BlabelBackgroundColor%3Ddefault%3BendArrow%3Dnone%3BendFill%3D0%3B%22%20edge%3D%221%22%20parent%3D%222%22%20source%3D%2210%22%3E%3CmxGeometry%20relative%3D%221%22%20as%3D%22geometry%22%3E%3CmxPoint%20x%3D%22465%22%20y%3D%22209.9999999999999%22%20as%3D%22targetPoint%22%2F%3E%3C%2FmxGeometry%3E%3C%2FmxCell%3E%3CmxCell%20id%3D%2210%22%20value%3D%22%26lt%3Bp%20style%3D%26quot%3Bline-height%3A%20110%25%3B%26quot%3B%26gt%3B%26lt%3Bbr%26gt%3B%26lt%3B%2Fp%26gt%3B%22%20style%3D%22verticalLabelPosition%3Dbottom%3Bshadow%3D0%3Bdashed%3D0%3Balign%3Dcenter%3Bhtml%3D1%3BverticalAlign%3Dtop%3Bshape%3Dmxgraph.electrical.logic_gates.logic_gate%3Boperation%3Dand%3BspacingTop%3D-20%3B%22%20vertex%3D%221%22%20parent%3D%222%22%3E%3CmxGeometry%20x%3D%22485%22%20y%3D%22164%22%20width%3D%22100%22%20height%3D%2260%22%20as%3D%22geometry%22%2F%3E%3C%2FmxCell%3E%3CmxCell%20id%3D%2211%22%20style%3D%22edgeStyle%3DorthogonalEdgeStyle%3Bshape%3Dconnector%3Brounded%3D0%3BorthogonalLoop%3D1%3BjettySize%3Dauto%3Bhtml%3D1%3BexitX%3D0%3BexitY%3D0.25%3BexitDx%3D0%3BexitDy%3D0%3BexitPerimeter%3D0%3BstrokeColor%3Ddefault%3Balign%3Dcenter%3BverticalAlign%3Dmiddle%3BfontFamily%3DHelvetica%3BfontSize%3D11%3BfontColor%3Ddefault%3BlabelBackgroundColor%3Ddefault%3BendArrow%3Dnone%3BendFill%3D0%3B%22%20edge%3D%221%22%20parent%3D%222%22%20source%3D%2213%22%3E%3CmxGeometry%20relative%3D%221%22%20as%3D%22geometry%22%3E%3CmxPoint%20x%3D%2285%22%20y%3D%22249%22%20as%3D%22targetPoint%22%2F%3E%3C%2FmxGeometry%3E%3C%2FmxCell%3E%3CmxCell%20id%3D%2212%22%20style%3D%22edgeStyle%3DorthogonalEdgeStyle%3Bshape%3Dconnector%3Brounded%3D0%3BorthogonalLoop%3D1%3BjettySize%3Dauto%3Bhtml%3D1%3BexitX%3D0%3BexitY%3D0.75%3BexitDx%3D0%3BexitDy%3D0%3BexitPerimeter%3D0%3BstrokeColor%3Ddefault%3Balign%3Dcenter%3BverticalAlign%3Dmiddle%3BfontFamily%3DHelvetica%3BfontSize%3D11%3BfontColor%3Ddefault%3BlabelBackgroundColor%3Ddefault%3BendArrow%3Dnone%3BendFill%3D0%3B%22%20edge%3D%221%22%20parent%3D%222%22%20source%3D%2213%22%3E%3CmxGeometry%20relative%3D%221%22%20as%3D%22geometry%22%3E%3CmxPoint%20x%3D%22465%22%20y%3D%22278.8333333333335%22%20as%3D%22targetPoint%22%2F%3E%3C%2FmxGeometry%3E%3C%2FmxCell%3E%3CmxCell%20id%3D%2213%22%20value%3D%22%26lt%3Bp%20style%3D%26quot%3Bline-height%3A%20110%25%3B%26quot%3B%26gt%3B%26lt%3Bbr%26gt%3B%26lt%3B%2Fp%26gt%3B%22%20style%3D%22verticalLabelPosition%3Dbottom%3Bshadow%3D0%3Bdashed%3D0%3Balign%3Dcenter%3Bhtml%3D1%3BverticalAlign%3Dtop%3Bshape%3Dmxgraph.electrical.logic_gates.logic_gate%3Boperation%3Dand%3BspacingTop%3D-20%3B%22%20vertex%3D%221%22%20parent%3D%222%22%3E%3CmxGeometry%20x%3D%22485%22%20y%3D%22234%22%20width%3D%22100%22%20height%3D%2260%22%20as%3D%22geometry%22%2F%3E%3C%2FmxCell%3E%3CmxCell%20id%3D%2214%22%20style%3D%22edgeStyle%3DorthogonalEdgeStyle%3Brounded%3D0%3BorthogonalLoop%3D1%3BjettySize%3Dauto%3Bhtml%3D1%3BexitX%3D0%3BexitY%3D0.25%3BexitDx%3D0%3BexitDy%3D0%3BexitPerimeter%3D0%3BendArrow%3Dnone%3BendFill%3D0%3BentryX%3D0.5%3BentryY%3D1%3BentryDx%3D0%3BentryDy%3D0%3B%22%20edge%3D%221%22%20parent%3D%222%22%20source%3D%2216%22%20target%3D%2236%22%3E%3CmxGeometry%20relative%3D%221%22%20as%3D%22geometry%22%3E%3CmxPoint%20x%3D%22345%22%20y%3D%22338.8333333333335%22%20as%3D%22targetPoint%22%2F%3E%3C%2FmxGeometry%3E%3C%2FmxCell%3E%3CmxCell%20id%3D%2215%22%20style%3D%22edgeStyle%3DorthogonalEdgeStyle%3Bshape%3Dconnector%3Brounded%3D0%3BorthogonalLoop%3D1%3BjettySize%3Dauto%3Bhtml%3D1%3BexitX%3D0%3BexitY%3D0.75%3BexitDx%3D0%3BexitDy%3D0%3BexitPerimeter%3D0%3BstrokeColor%3Ddefault%3Balign%3Dcenter%3BverticalAlign%3Dmiddle%3BfontFamily%3DHelvetica%3BfontSize%3D11%3BfontColor%3Ddefault%3BlabelBackgroundColor%3Ddefault%3BendArrow%3Dnone%3BendFill%3D0%3B%22%20edge%3D%221%22%20parent%3D%222%22%20source%3D%2216%22%3E%3CmxGeometry%20relative%3D%221%22%20as%3D%22geometry%22%3E%3CmxPoint%20x%3D%22465%22%20y%3D%22368.8333333333335%22%20as%3D%22targetPoint%22%2F%3E%3C%2FmxGeometry%3E%3C%2FmxCell%3E%3CmxCell%20id%3D%2216%22%20value%3D%22%26lt%3Bp%20style%3D%26quot%3Bline-height%3A%20110%25%3B%26quot%3B%26gt%3B%26lt%3Bbr%26gt%3B%26lt%3B%2Fp%26gt%3B%22%20style%3D%22verticalLabelPosition%3Dbottom%3Bshadow%3D0%3Bdashed%3D0%3Balign%3Dcenter%3Bhtml%3D1%3BverticalAlign%3Dtop%3Bshape%3Dmxgraph.electrical.logic_gates.logic_gate%3Boperation%3Dand%3BspacingTop%3D-20%3B%22%20vertex%3D%221%22%20parent%3D%222%22%3E%3CmxGeometry%20x%3D%22485%22%20y%3D%22324%22%20width%3D%22100%22%20height%3D%2260%22%20as%3D%22geometry%22%2F%3E%3C%2FmxCell%3E%3CmxCell%20id%3D%2217%22%20style%3D%22rounded%3D0%3BorthogonalLoop%3D1%3BjettySize%3Dauto%3Bhtml%3D1%3BexitX%3D0%3BexitY%3D0.25%3BexitDx%3D0%3BexitDy%3D0%3BexitPerimeter%3D0%3BedgeStyle%3DorthogonalEdgeStyle%3BendArrow%3Dnone%3BendFill%3D0%3BentryX%3D0.5%3BentryY%3D1%3BentryDx%3D0%3BentryDy%3D0%3B%22%20edge%3D%221%22%20parent%3D%222%22%20source%3D%2219%22%20target%3D%2237%22%3E%3CmxGeometry%20relative%3D%221%22%20as%3D%22geometry%22%3E%3CmxPoint%20x%3D%22305%22%20y%3D%22110%22%20as%3D%22targetPoint%22%2F%3E%3C%2FmxGeometry%3E%3C%2FmxCell%3E%3CmxCell%20id%3D%2218%22%20style%3D%22edgeStyle%3DorthogonalEdgeStyle%3Bshape%3Dconnector%3Brounded%3D0%3BorthogonalLoop%3D1%3BjettySize%3Dauto%3Bhtml%3D1%3BexitX%3D0%3BexitY%3D0.75%3BexitDx%3D0%3BexitDy%3D0%3BexitPerimeter%3D0%3BstrokeColor%3Ddefault%3Balign%3Dcenter%3BverticalAlign%3Dmiddle%3BfontFamily%3DHelvetica%3BfontSize%3D11%3BfontColor%3Ddefault%3BlabelBackgroundColor%3Ddefault%3BendArrow%3Dnone%3BendFill%3D0%3B%22%20edge%3D%221%22%20parent%3D%222%22%20source%3D%2219%22%3E%3CmxGeometry%20relative%3D%221%22%20as%3D%22geometry%22%3E%3CmxPoint%20x%3D%22465%22%20y%3D%22438.8333333333335%22%20as%3D%22targetPoint%22%2F%3E%3C%2FmxGeometry%3E%3C%2FmxCell%3E%3CmxCell%20id%3D%2219%22%20value%3D%22%26lt%3Bp%20style%3D%26quot%3Bline-height%3A%20110%25%3B%26quot%3B%26gt%3B%26lt%3Bbr%26gt%3B%26lt%3B%2Fp%26gt%3B%22%20style%3D%22verticalLabelPosition%3Dbottom%3Bshadow%3D0%3Bdashed%3D0%3Balign%3Dcenter%3Bhtml%3D1%3BverticalAlign%3Dtop%3Bshape%3Dmxgraph.electrical.logic_gates.logic_gate%3Boperation%3Dand%3BspacingTop%3D-20%3B%22%20vertex%3D%221%22%20parent%3D%222%22%3E%3CmxGeometry%20x%3D%22485%22%20y%3D%22394%22%20width%3D%22100%22%20height%3D%2260%22%20as%3D%22geometry%22%2F%3E%3C%2FmxCell%3E%3CmxCell%20id%3D%2220%22%20style%3D%22edgeStyle%3DorthogonalEdgeStyle%3Brounded%3D0%3BorthogonalLoop%3D1%3BjettySize%3Dauto%3Bhtml%3D1%3BexitX%3D0%3BexitY%3D0.25%3BexitDx%3D0%3BexitDy%3D0%3BexitPerimeter%3D0%3BendArrow%3Dnone%3BendFill%3D0%3B%22%20edge%3D%221%22%20parent%3D%222%22%20source%3D%2222%22%3E%3CmxGeometry%20relative%3D%221%22%20as%3D%22geometry%22%3E%3CmxPoint%20x%3D%22265%22%20y%3D%22180%22%20as%3D%22targetPoint%22%2F%3E%3C%2FmxGeometry%3E%3C%2FmxCell%3E%3CmxCell%20id%3D%2221%22%20style%3D%22edgeStyle%3DorthogonalEdgeStyle%3Bshape%3Dconnector%3Brounded%3D0%3BorthogonalLoop%3D1%3BjettySize%3Dauto%3Bhtml%3D1%3BexitX%3D0%3BexitY%3D0.75%3BexitDx%3D0%3BexitDy%3D0%3BexitPerimeter%3D0%3BstrokeColor%3Ddefault%3Balign%3Dcenter%3BverticalAlign%3Dmiddle%3BfontFamily%3DHelvetica%3BfontSize%3D11%3BfontColor%3Ddefault%3BlabelBackgroundColor%3Ddefault%3BendArrow%3Dnone%3BendFill%3D0%3B%22%20edge%3D%221%22%20parent%3D%222%22%20source%3D%2222%22%3E%3CmxGeometry%20relative%3D%221%22%20as%3D%22geometry%22%3E%3CmxPoint%20x%3D%22465%22%20y%3D%22508.8333333333335%22%20as%3D%22targetPoint%22%2F%3E%3C%2FmxGeometry%3E%3C%2FmxCell%3E%3CmxCell%20id%3D%2222%22%20value%3D%22%26lt%3Bp%20style%3D%26quot%3Bline-height%3A%20110%25%3B%26quot%3B%26gt%3B%26lt%3Bbr%26gt%3B%26lt%3B%2Fp%26gt%3B%22%20style%3D%22verticalLabelPosition%3Dbottom%3Bshadow%3D0%3Bdashed%3D0%3Balign%3Dcenter%3Bhtml%3D1%3BverticalAlign%3Dtop%3Bshape%3Dmxgraph.electrical.logic_gates.logic_gate%3Boperation%3Dand%3BspacingTop%3D-20%3B%22%20vertex%3D%221%22%20parent%3D%222%22%3E%3CmxGeometry%20x%3D%22485%22%20y%3D%22464%22%20width%3D%22100%22%20height%3D%2260%22%20as%3D%22geometry%22%2F%3E%3C%2FmxCell%3E%3CmxCell%20id%3D%2223%22%20style%3D%22edgeStyle%3DorthogonalEdgeStyle%3Brounded%3D0%3BorthogonalLoop%3D1%3BjettySize%3Dauto%3Bhtml%3D1%3BexitX%3D0%3BexitY%3D0.25%3BexitDx%3D0%3BexitDy%3D0%3BexitPerimeter%3D0%3BendArrow%3Dnone%3BendFill%3D0%3B%22%20edge%3D%221%22%20parent%3D%222%22%20source%3D%2225%22%3E%3CmxGeometry%20relative%3D%221%22%20as%3D%22geometry%22%3E%3CmxPoint%20x%3D%22225%22%20y%3D%22250%22%20as%3D%22targetPoint%22%2F%3E%3C%2FmxGeometry%3E%3C%2FmxCell%3E%3CmxCell%20id%3D%2224%22%20style%3D%22edgeStyle%3DorthogonalEdgeStyle%3Bshape%3Dconnector%3Brounded%3D0%3BorthogonalLoop%3D1%3BjettySize%3Dauto%3Bhtml%3D1%3BexitX%3D0%3BexitY%3D0.75%3BexitDx%3D0%3BexitDy%3D0%3BexitPerimeter%3D0%3BstrokeColor%3Ddefault%3Balign%3Dcenter%3BverticalAlign%3Dmiddle%3BfontFamily%3DHelvetica%3BfontSize%3D11%3BfontColor%3Ddefault%3BlabelBackgroundColor%3Ddefault%3BendArrow%3Dnone%3BendFill%3D0%3B%22%20edge%3D%221%22%20parent%3D%222%22%20source%3D%2225%22%3E%3CmxGeometry%20relative%3D%221%22%20as%3D%22geometry%22%3E%3CmxPoint%20x%3D%22465%22%20y%3D%22578.8333333333335%22%20as%3D%22targetPoint%22%2F%3E%3C%2FmxGeometry%3E%3C%2FmxCell%3E%3CmxCell%20id%3D%2225%22%20value%3D%22%26lt%3Bp%20style%3D%26quot%3Bline-height%3A%20110%25%3B%26quot%3B%26gt%3B%26lt%3Bbr%26gt%3B%26lt%3B%2Fp%26gt%3B%22%20style%3D%22verticalLabelPosition%3Dbottom%3Bshadow%3D0%3Bdashed%3D0%3Balign%3Dcenter%3Bhtml%3D1%3BverticalAlign%3Dtop%3Bshape%3Dmxgraph.electrical.logic_gates.logic_gate%3Boperation%3Dand%3BspacingTop%3D-20%3B%22%20vertex%3D%221%22%20parent%3D%222%22%3E%3CmxGeometry%20x%3D%22485%22%20y%3D%22534%22%20width%3D%22100%22%20height%3D%2260%22%20as%3D%22geometry%22%2F%3E%3C%2FmxCell%3E%3CmxCell%20id%3D%2226%22%20value%3D%22%26lt%3Bp%26gt%3B%26lt%3Bfont%20style%3D%26quot%3Bfont-size%3A%2016px%3B%26quot%3B%20face%3D%26quot%3BHelvetica%26quot%3B%26gt%3Ba%5B0%5D%26lt%3B%2Ffont%26gt%3B%26lt%3B%2Fp%26gt%3B%22%20style%3D%22text%3Bhtml%3D1%3Balign%3Dcenter%3BverticalAlign%3Dmiddle%3Bresizable%3D0%3Bpoints%3D%5B%5D%3Bautosize%3D1%3BstrokeColor%3Dnone%3BfillColor%3Dnone%3B%22%20vertex%3D%221%22%20parent%3D%222%22%3E%3CmxGeometry%20x%3D%22578%22%20y%3D%2224%22%20width%3D%2250%22%20height%3D%2260%22%20as%3D%22geometry%22%2F%3E%3C%2FmxCell%3E%3CmxCell%20id%3D%2227%22%20value%3D%22%26lt%3Bp%26gt%3B%26lt%3Bfont%20style%3D%26quot%3Bfont-size%3A%2016px%3B%26quot%3B%20face%3D%26quot%3BHelvetica%26quot%3B%26gt%3Ba%5B1%26lt%3B%2Ffont%26gt%3B%26lt%3Bspan%20style%3D%26quot%3Bfont-size%3A%2016px%3B%20background-color%3A%20initial%3B%26quot%3B%26gt%3B%5D%26lt%3B%2Fspan%26gt%3B%26lt%3B%2Fp%26gt%3B%22%20style%3D%22text%3Bhtml%3D1%3Balign%3Dcenter%3BverticalAlign%3Dmiddle%3Bresizable%3D0%3Bpoints%3D%5B%5D%3Bautosize%3D1%3BstrokeColor%3Dnone%3BfillColor%3Dnone%3B%22%20vertex%3D%221%22%20parent%3D%222%22%3E%3CmxGeometry%20x%3D%22578%22%20y%3D%2294%22%20width%3D%2250%22%20height%3D%2260%22%20as%3D%22geometry%22%2F%3E%3C%2FmxCell%3E%3CmxCell%20id%3D%2228%22%20value%3D%22%26lt%3Bp%26gt%3B%26lt%3Bfont%20style%3D%26quot%3Bfont-size%3A%2016px%3B%26quot%3B%20face%3D%26quot%3BHelvetica%26quot%3B%26gt%3Ba%5B2%5D%26lt%3B%2Ffont%26gt%3B%26lt%3B%2Fp%26gt%3B%22%20style%3D%22text%3Bhtml%3D1%3Balign%3Dcenter%3BverticalAlign%3Dmiddle%3Bresizable%3D0%3Bpoints%3D%5B%5D%3Bautosize%3D1%3BstrokeColor%3Dnone%3BfillColor%3Dnone%3B%22%20vertex%3D%221%22%20parent%3D%222%22%3E%3CmxGeometry%20x%3D%22578%22%20y%3D%22164%22%20width%3D%2250%22%20height%3D%2260%22%20as%3D%22geometry%22%2F%3E%3C%2FmxCell%3E%3CmxCell%20id%3D%2229%22%20value%3D%22%26lt%3Bp%26gt%3B%26lt%3Bfont%20style%3D%26quot%3Bfont-size%3A%2016px%3B%26quot%3B%20face%3D%26quot%3BHelvetica%26quot%3B%26gt%3Ba%5B3%26lt%3B%2Ffont%26gt%3B%26lt%3Bspan%20style%3D%26quot%3Bfont-size%3A%2016px%3B%20background-color%3A%20initial%3B%26quot%3B%26gt%3B%5D%26lt%3B%2Fspan%26gt%3B%26lt%3B%2Fp%26gt%3B%22%20style%3D%22text%3Bhtml%3D1%3Balign%3Dcenter%3BverticalAlign%3Dmiddle%3Bresizable%3D0%3Bpoints%3D%5B%5D%3Bautosize%3D1%3BstrokeColor%3Dnone%3BfillColor%3Dnone%3B%22%20vertex%3D%221%22%20parent%3D%222%22%3E%3CmxGeometry%20x%3D%22578%22%20y%3D%22234%22%20width%3D%2250%22%20height%3D%2260%22%20as%3D%22geometry%22%2F%3E%3C%2FmxCell%3E%3CmxCell%20id%3D%2230%22%20value%3D%22%26lt%3Bp%26gt%3B%26lt%3Bfont%20style%3D%26quot%3Bfont-size%3A%2016px%3B%26quot%3B%20face%3D%26quot%3BHelvetica%26quot%3B%26gt%3Bb%5B0%5D%26lt%3B%2Ffont%26gt%3B%26lt%3B%2Fp%26gt%3B%22%20style%3D%22text%3Bhtml%3D1%3Balign%3Dcenter%3BverticalAlign%3Dmiddle%3Bresizable%3D0%3Bpoints%3D%5B%5D%3Bautosize%3D1%3BstrokeColor%3Dnone%3BfillColor%3Dnone%3B%22%20vertex%3D%221%22%20parent%3D%222%22%3E%3CmxGeometry%20x%3D%22578%22%20y%3D%22324%22%20width%3D%2250%22%20height%3D%2260%22%20as%3D%22geometry%22%2F%3E%3C%2FmxCell%3E%3CmxCell%20id%3D%2231%22%20value%3D%22%26lt%3Bp%26gt%3B%26lt%3Bfont%20style%3D%26quot%3Bfont-size%3A%2016px%3B%26quot%3B%20face%3D%26quot%3BHelvetica%26quot%3B%26gt%3Bb%5B1%26lt%3B%2Ffont%26gt%3B%26lt%3Bspan%20style%3D%26quot%3Bfont-size%3A%2016px%3B%20background-color%3A%20initial%3B%26quot%3B%26gt%3B%5D%26lt%3B%2Fspan%26gt%3B%26lt%3B%2Fp%26gt%3B%22%20style%3D%22text%3Bhtml%3D1%3Balign%3Dcenter%3BverticalAlign%3Dmiddle%3Bresizable%3D0%3Bpoints%3D%5B%5D%3Bautosize%3D1%3BstrokeColor%3Dnone%3BfillColor%3Dnone%3B%22%20vertex%3D%221%22%20parent%3D%222%22%3E%3CmxGeometry%20x%3D%22578%22%20y%3D%22394%22%20width%3D%2250%22%20height%3D%2260%22%20as%3D%22geometry%22%2F%3E%3C%2FmxCell%3E%3CmxCell%20id%3D%2232%22%20value%3D%22%26lt%3Bp%26gt%3B%26lt%3Bfont%20style%3D%26quot%3Bfont-size%3A%2016px%3B%26quot%3B%20face%3D%26quot%3BHelvetica%26quot%3B%26gt%3Bb%5B2%5D%26lt%3B%2Ffont%26gt%3B%26lt%3B%2Fp%26gt%3B%22%20style%3D%22text%3Bhtml%3D1%3Balign%3Dcenter%3BverticalAlign%3Dmiddle%3Bresizable%3D0%3Bpoints%3D%5B%5D%3Bautosize%3D1%3BstrokeColor%3Dnone%3BfillColor%3Dnone%3B%22%20vertex%3D%221%22%20parent%3D%222%22%3E%3CmxGeometry%20x%3D%22578%22%20y%3D%22464%22%20width%3D%2250%22%20height%3D%2260%22%20as%3D%22geometry%22%2F%3E%3C%2FmxCell%3E%3CmxCell%20id%3D%2233%22%20value%3D%22%26lt%3Bp%26gt%3B%26lt%3Bfont%20style%3D%26quot%3Bfont-size%3A%2016px%3B%26quot%3B%20face%3D%26quot%3BHelvetica%26quot%3B%26gt%3Bb%5B3%26lt%3B%2Ffont%26gt%3B%26lt%3Bspan%20style%3D%26quot%3Bfont-size%3A%2016px%3B%20background-color%3A%20initial%3B%26quot%3B%26gt%3B%5D%26lt%3B%2Fspan%26gt%3B%26lt%3B%2Fp%26gt%3B%22%20style%3D%22text%3Bhtml%3D1%3Balign%3Dcenter%3BverticalAlign%3Dmiddle%3Bresizable%3D0%3Bpoints%3D%5B%5D%3Bautosize%3D1%3BstrokeColor%3Dnone%3BfillColor%3Dnone%3B%22%20vertex%3D%221%22%20parent%3D%222%22%3E%3CmxGeometry%20x%3D%22578%22%20y%3D%22534%22%20width%3D%2250%22%20height%3D%2260%22%20as%3D%22geometry%22%2F%3E%3C%2FmxCell%3E%3CmxCell%20id%3D%2234%22%20value%3D%22%22%20style%3D%22edgeStyle%3DorthogonalEdgeStyle%3Brounded%3D0%3BorthogonalLoop%3D1%3BjettySize%3Dauto%3Bhtml%3D1%3BexitX%3D0%3BexitY%3D0.25%3BexitDx%3D0%3BexitDy%3D0%3BexitPerimeter%3D0%3BendArrow%3Dnone%3BendFill%3D0%3B%22%20edge%3D%221%22%20parent%3D%222%22%20source%3D%224%22%20target%3D%2236%22%3E%3CmxGeometry%20relative%3D%221%22%20as%3D%22geometry%22%3E%3CmxPoint%20x%3D%2285%22%20y%3D%2239%22%20as%3D%22targetPoint%22%2F%3E%3CmxPoint%20x%3D%22485%22%20y%3D%2239%22%20as%3D%22sourcePoint%22%2F%3E%3C%2FmxGeometry%3E%3C%2FmxCell%3E%3CmxCell%20id%3D%2235%22%20style%3D%22edgeStyle%3DorthogonalEdgeStyle%3Bshape%3Dconnector%3Brounded%3D0%3BorthogonalLoop%3D1%3BjettySize%3Dauto%3Bhtml%3D1%3BexitX%3D0%3BexitY%3D0.5%3BexitDx%3D0%3BexitDy%3D0%3BstrokeColor%3Ddefault%3Balign%3Dcenter%3BverticalAlign%3Dmiddle%3BfontFamily%3DHelvetica%3BfontSize%3D11%3BfontColor%3Ddefault%3BlabelBackgroundColor%3Ddefault%3BendArrow%3Dnone%3BendFill%3D0%3B%22%20edge%3D%221%22%20parent%3D%222%22%20source%3D%2236%22%3E%3CmxGeometry%20relative%3D%221%22%20as%3D%22geometry%22%3E%3CmxPoint%20x%3D%2285%22%20y%3D%2239%22%20as%3D%22targetPoint%22%2F%3E%3C%2FmxGeometry%3E%3C%2FmxCell%3E%3CmxCell%20id%3D%2236%22%20value%3D%22%22%20style%3D%22shape%3Dellipse%3BfillColor%3D%23000000%3BstrokeColor%3Dnone%3Bhtml%3D1%3Bsketch%3D0%3BfontFamily%3DHelvetica%3BfontSize%3D11%3BfontColor%3Ddefault%3BlabelBackgroundColor%3Ddefault%3B%22%20vertex%3D%221%22%20parent%3D%222%22%3E%3CmxGeometry%20x%3D%22340%22%20y%3D%2234%22%20width%3D%2210%22%20height%3D%2210%22%20as%3D%22geometry%22%2F%3E%3C%2FmxCell%3E%3CmxCell%20id%3D%2237%22%20value%3D%22%22%20style%3D%22shape%3Dellipse%3BfillColor%3D%23000000%3BstrokeColor%3Dnone%3Bhtml%3D1%3Bsketch%3D0%3BfontFamily%3DHelvetica%3BfontSize%3D11%3BfontColor%3Ddefault%3BlabelBackgroundColor%3Ddefault%3B%22%20vertex%3D%221%22%20parent%3D%222%22%3E%3CmxGeometry%20x%3D%22300%22%20y%3D%22103%22%20width%3D%2210%22%20height%3D%2210%22%20as%3D%22geometry%22%2F%3E%3C%2FmxCell%3E%3CmxCell%20id%3D%2238%22%20value%3D%22%22%20style%3D%22shape%3Dellipse%3BfillColor%3D%23000000%3BstrokeColor%3Dnone%3Bhtml%3D1%3Bsketch%3D0%3BfontFamily%3DHelvetica%3BfontSize%3D11%3BfontColor%3Ddefault%3BlabelBackgroundColor%3Ddefault%3B%22%20vertex%3D%221%22%20parent%3D%222%22%3E%3CmxGeometry%20x%3D%22260%22%20y%3D%22174%22%20width%3D%2210%22%20height%3D%2210%22%20as%3D%22geometry%22%2F%3E%3C%2FmxCell%3E%3CmxCell%20id%3D%2239%22%20value%3D%22%22%20style%3D%22shape%3Dellipse%3BfillColor%3D%23000000%3BstrokeColor%3Dnone%3Bhtml%3D1%3Bsketch%3D0%3BfontFamily%3DHelvetica%3BfontSize%3D11%3BfontColor%3Ddefault%3BlabelBackgroundColor%3Ddefault%3B%22%20vertex%3D%221%22%20parent%3D%222%22%3E%3CmxGeometry%20x%3D%22220%22%20y%3D%22243%22%20width%3D%2210%22%20height%3D%2210%22%20as%3D%22geometry%22%2F%3E%3C%2FmxCell%3E%3CmxCell%20id%3D%2240%22%20value%3D%22%22%20style%3D%22endArrow%3Dnone%3Bhtml%3D1%3Brounded%3D0%3BstrokeColor%3Ddefault%3Balign%3Dcenter%3BverticalAlign%3Dmiddle%3BfontFamily%3DHelvetica%3BfontSize%3D11%3BfontColor%3Ddefault%3BlabelBackgroundColor%3Ddefault%3BedgeStyle%3DorthogonalEdgeStyle%3B%22%20edge%3D%221%22%20parent%3D%222%22%3E%3CmxGeometry%20width%3D%2250%22%20height%3D%2250%22%20relative%3D%221%22%20as%3D%22geometry%22%3E%3CmxPoint%20x%3D%2285%22%20y%3D%22620%22%20as%3D%22sourcePoint%22%2F%3E%3CmxPoint%20x%3D%22465%22%20y%3D%22370%22%20as%3D%22targetPoint%22%2F%3E%3C%2FmxGeometry%3E%3C%2FmxCell%3E%3CmxCell%20id%3D%2241%22%20value%3D%22%22%20style%3D%22endArrow%3Dnone%3Bhtml%3D1%3Brounded%3D0%3BstrokeColor%3Ddefault%3Balign%3Dcenter%3BverticalAlign%3Dmiddle%3BfontFamily%3DHelvetica%3BfontSize%3D11%3BfontColor%3Ddefault%3BlabelBackgroundColor%3Ddefault%3BedgeStyle%3DorthogonalEdgeStyle%3B%22%20edge%3D%221%22%20parent%3D%222%22%3E%3CmxGeometry%20width%3D%2250%22%20height%3D%2250%22%20relative%3D%221%22%20as%3D%22geometry%22%3E%3CmxPoint%20x%3D%22145%22%20y%3D%22620%22%20as%3D%22sourcePoint%22%2F%3E%3CmxPoint%20x%3D%22465%22%20y%3D%2270%22%20as%3D%22targetPoint%22%2F%3E%3CArray%20as%3D%22points%22%3E%3CmxPoint%20x%3D%22145%22%20y%3D%22300%22%2F%3E%3C%2FArray%3E%3C%2FmxGeometry%3E%3C%2FmxCell%3E%3CmxCell%20id%3D%2242%22%20value%3D%22%22%20style%3D%22verticalLabelPosition%3Dbottom%3Bshadow%3D0%3Bdashed%3D0%3Balign%3Dcenter%3Bhtml%3D1%3BverticalAlign%3Dtop%3Bshape%3Dmxgraph.electrical.logic_gates.inverter_2%3BfontFamily%3DHelvetica%3BfontSize%3D11%3BfontColor%3Ddefault%3BlabelBackgroundColor%3Ddefault%3Brotation%3D-90%3B%22%20vertex%3D%221%22%20parent%3D%222%22%3E%3CmxGeometry%20x%3D%2295%22%20y%3D%22420%22%20width%3D%22100%22%20height%3D%2260%22%20as%3D%22geometry%22%2F%3E%3C%2FmxCell%3E%3CmxCell%20id%3D%2243%22%20value%3D%22%22%20style%3D%22shape%3Dellipse%3BfillColor%3D%23000000%3BstrokeColor%3Dnone%3Bhtml%3D1%3Bsketch%3D0%3BfontFamily%3DHelvetica%3BfontSize%3D11%3BfontColor%3Ddefault%3BlabelBackgroundColor%3Ddefault%3B%22%20vertex%3D%221%22%20parent%3D%222%22%3E%3CmxGeometry%20x%3D%22460%22%20y%3D%22134%22%20width%3D%2210%22%20height%3D%2210%22%20as%3D%22geometry%22%2F%3E%3C%2FmxCell%3E%3CmxCell%20id%3D%2244%22%20value%3D%22%22%20style%3D%22shape%3Dellipse%3BfillColor%3D%23000000%3BstrokeColor%3Dnone%3Bhtml%3D1%3Bsketch%3D0%3BfontFamily%3DHelvetica%3BfontSize%3D11%3BfontColor%3Ddefault%3BlabelBackgroundColor%3Ddefault%3B%22%20vertex%3D%221%22%20parent%3D%222%22%3E%3CmxGeometry%20x%3D%22461%22%20y%3D%22204%22%20width%3D%2210%22%20height%3D%2210%22%20as%3D%22geometry%22%2F%3E%3C%2FmxCell%3E%3CmxCell%20id%3D%2245%22%20value%3D%22%22%20style%3D%22shape%3Dellipse%3BfillColor%3D%23000000%3BstrokeColor%3Dnone%3Bhtml%3D1%3Bsketch%3D0%3BfontFamily%3DHelvetica%3BfontSize%3D11%3BfontColor%3Ddefault%3BlabelBackgroundColor%3Ddefault%3B%22%20vertex%3D%221%22%20parent%3D%222%22%3E%3CmxGeometry%20x%3D%22460%22%20y%3D%22274%22%20width%3D%2210%22%20height%3D%2210%22%20as%3D%22geometry%22%2F%3E%3C%2FmxCell%3E%3CmxCell%20id%3D%2246%22%20value%3D%22%22%20style%3D%22shape%3Dellipse%3BfillColor%3D%23000000%3BstrokeColor%3Dnone%3Bhtml%3D1%3Bsketch%3D0%3BfontFamily%3DHelvetica%3BfontSize%3D11%3BfontColor%3Ddefault%3BlabelBackgroundColor%3Ddefault%3B%22%20vertex%3D%221%22%20parent%3D%222%22%3E%3CmxGeometry%20x%3D%22461%22%20y%3D%22434%22%20width%3D%2210%22%20height%3D%2210%22%20as%3D%22geometry%22%2F%3E%3C%2FmxCell%3E%3CmxCell%20id%3D%2247%22%20value%3D%22%22%20style%3D%22shape%3Dellipse%3BfillColor%3D%23000000%3BstrokeColor%3Dnone%3Bhtml%3D1%3Bsketch%3D0%3BfontFamily%3DHelvetica%3BfontSize%3D11%3BfontColor%3Ddefault%3BlabelBackgroundColor%3Ddefault%3B%22%20vertex%3D%221%22%20parent%3D%222%22%3E%3CmxGeometry%20x%3D%22462%22%20y%3D%22504%22%20width%3D%2210%22%20height%3D%2210%22%20as%3D%22geometry%22%2F%3E%3C%2FmxCell%3E%3CmxCell%20id%3D%2248%22%20value%3D%22%22%20style%3D%22shape%3Dellipse%3BfillColor%3D%23000000%3BstrokeColor%3Dnone%3Bhtml%3D1%3Bsketch%3D0%3BfontFamily%3DHelvetica%3BfontSize%3D11%3BfontColor%3Ddefault%3BlabelBackgroundColor%3Ddefault%3B%22%20vertex%3D%221%22%20parent%3D%222%22%3E%3CmxGeometry%20x%3D%22461%22%20y%3D%22574%22%20width%3D%2210%22%20height%3D%2210%22%20as%3D%22geometry%22%2F%3E%3C%2FmxCell%3E%3CmxCell%20id%3D%2249%22%20value%3D%22%26lt%3Bp%26gt%3B%26lt%3Bfont%20style%3D%26quot%3Bfont-size%3A%2016px%3B%26quot%3B%20face%3D%26quot%3BHelvetica%26quot%3B%26gt%3Bin%5B0%5D%26lt%3B%2Ffont%26gt%3B%26lt%3B%2Fp%26gt%3B%22%20style%3D%22text%3Bhtml%3D1%3Balign%3Dcenter%3BverticalAlign%3Dmiddle%3Bresizable%3D0%3Bpoints%3D%5B%5D%3Bautosize%3D1%3BstrokeColor%3Dnone%3BfillColor%3Dnone%3B%22%20vertex%3D%221%22%20parent%3D%222%22%3E%3CmxGeometry%20x%3D%2235%22%20y%3D%229%22%20width%3D%2250%22%20height%3D%2260%22%20as%3D%22geometry%22%2F%3E%3C%2FmxCell%3E%3CmxCell%20id%3D%2250%22%20value%3D%22%26lt%3Bp%26gt%3B%26lt%3Bfont%20style%3D%26quot%3Bfont-size%3A%2016px%3B%26quot%3B%20face%3D%26quot%3BHelvetica%26quot%3B%26gt%3Bin%5B1%5D%26lt%3B%2Ffont%26gt%3B%26lt%3B%2Fp%26gt%3B%22%20style%3D%22text%3Bhtml%3D1%3Balign%3Dcenter%3BverticalAlign%3Dmiddle%3Bresizable%3D0%3Bpoints%3D%5B%5D%3Bautosize%3D1%3BstrokeColor%3Dnone%3BfillColor%3Dnone%3B%22%20vertex%3D%221%22%20parent%3D%222%22%3E%3CmxGeometry%20x%3D%2235%22%20y%3D%2278%22%20width%3D%2250%22%20height%3D%2260%22%20as%3D%22geometry%22%2F%3E%3C%2FmxCell%3E%3CmxCell%20id%3D%2251%22%20value%3D%22%26lt%3Bp%26gt%3B%26lt%3Bfont%20style%3D%26quot%3Bfont-size%3A%2016px%3B%26quot%3B%20face%3D%26quot%3BHelvetica%26quot%3B%26gt%3Bin%5B2%5D%26lt%3B%2Ffont%26gt%3B%26lt%3B%2Fp%26gt%3B%22%20style%3D%22text%3Bhtml%3D1%3Balign%3Dcenter%3BverticalAlign%3Dmiddle%3Bresizable%3D0%3Bpoints%3D%5B%5D%3Bautosize%3D1%3BstrokeColor%3Dnone%3BfillColor%3Dnone%3B%22%20vertex%3D%221%22%20parent%3D%222%22%3E%3CmxGeometry%20x%3D%2235%22%20y%3D%22149%22%20width%3D%2250%22%20height%3D%2260%22%20as%3D%22geometry%22%2F%3E%3C%2FmxCell%3E%3CmxCell%20id%3D%2252%22%20value%3D%22%26lt%3Bp%26gt%3B%26lt%3Bfont%20style%3D%26quot%3Bfont-size%3A%2016px%3B%26quot%3B%20face%3D%26quot%3BHelvetica%26quot%3B%26gt%3Bin%5B3%5D%26lt%3B%2Ffont%26gt%3B%26lt%3B%2Fp%26gt%3B%22%20style%3D%22text%3Bhtml%3D1%3Balign%3Dcenter%3BverticalAlign%3Dmiddle%3Bresizable%3D0%3Bpoints%3D%5B%5D%3Bautosize%3D1%3BstrokeColor%3Dnone%3BfillColor%3Dnone%3B%22%20vertex%3D%221%22%20parent%3D%222%22%3E%3CmxGeometry%20x%3D%2235%22%20y%3D%22218%22%20width%3D%2250%22%20height%3D%2260%22%20as%3D%22geometry%22%2F%3E%3C%2FmxCell%3E%3CmxCell%20id%3D%2253%22%20value%3D%22%26lt%3Bp%26gt%3B%26lt%3Bspan%20style%3D%26quot%3Bfont-size%3A%2016px%3B%26quot%3B%26gt%3Bsel%26lt%3B%2Fspan%26gt%3B%26lt%3B%2Fp%26gt%3B%22%20style%3D%22text%3Bhtml%3D1%3Balign%3Dcenter%3BverticalAlign%3Dmiddle%3Bresizable%3D0%3Bpoints%3D%5B%5D%3Bautosize%3D1%3BstrokeColor%3Dnone%3BfillColor%3Dnone%3B%22%20vertex%3D%221%22%20parent%3D%222%22%3E%3CmxGeometry%20x%3D%2240%22%20y%3D%22589%22%20width%3D%2240%22%20height%3D%2260%22%20as%3D%22geometry%22%2F%3E%3C%2FmxCell%3E%3CmxCell%20id%3D%2254%22%20value%3D%22%22%20style%3D%22rounded%3D0%3BwhiteSpace%3Dwrap%3Bhtml%3D1%3BfontFamily%3DHelvetica%3BfontSize%3D11%3BfontColor%3Ddefault%3BlabelBackgroundColor%3Ddefault%3BfillColor%3Dnone%3B%22%20vertex%3D%221%22%20parent%3D%222%22%3E%3CmxGeometry%20width%3D%22655%22%20height%3D%22660%22%20as%3D%22geometry%22%2F%3E%3C%2FmxCell%3E%3C%2Froot%3E%3C%2FmxGraphModel%3E&lt;/span&gt;" style="rounded=0;whiteSpace=wrap;html=1;fontFamily=Helvetica;fontSize=11;fontColor=default;labelBackgroundColor=default;fillColor=none;" vertex="1" parent="1">
          <mxGeometry x="40" y="40" width="690" height="290" as="geometry" />
        </mxCell>
        <mxCell id="nPTtFJBcblNeartGyqR0-18" value="&lt;div style=&quot;color: rgb(248, 248, 242); background-color: rgb(38, 41, 44); font-family: &amp;quot;Fira Code&amp;quot;, Consolas, &amp;quot;Courier New&amp;quot;, monospace, Menlo, Monaco, &amp;quot;Courier New&amp;quot;, monospace; font-size: 16px; line-height: 24px; white-space-collapse: preserve;&quot;&gt;Majority&lt;/div&gt;" style="text;html=1;align=center;verticalAlign=middle;resizable=0;points=[];autosize=1;strokeColor=none;fillColor=none;" vertex="1" parent="1">
          <mxGeometry x="10" width="100" height="40" as="geometry" />
        </mxCell>
        <mxCell id="SuiF_eCnqLfyTjt4aqKX-1" value="&lt;b&gt;&lt;font style=&quot;font-size: 16px;&quot;&gt;AND&lt;/font&gt;&lt;/b&gt;&lt;div&gt;with NAND&lt;/div&gt;" style="rounded=1;whiteSpace=wrap;html=1;" parent="1" vertex="1">
          <mxGeometry x="210" y="70" width="120" height="60" as="geometry" />
        </mxCell>
        <mxCell id="nPTtFJBcblNeartGyqR0-3" style="edgeStyle=orthogonalEdgeStyle;rounded=0;orthogonalLoop=1;jettySize=auto;html=1;exitX=1;exitY=0.5;exitDx=0;exitDy=0;entryX=0;entryY=0.681;entryDx=0;entryDy=0;entryPerimeter=0;" edge="1" parent="1" source="SuiF_eCnqLfyTjt4aqKX-2" target="nPTtFJBcblNeartGyqR0-1">
          <mxGeometry relative="1" as="geometry">
            <mxPoint x="400" y="160.00000000000006" as="targetPoint" />
            <Array as="points" />
          </mxGeometry>
        </mxCell>
        <mxCell id="SuiF_eCnqLfyTjt4aqKX-2" value="&lt;b&gt;&lt;font style=&quot;font-size: 16px;&quot;&gt;AND&lt;/font&gt;&lt;/b&gt;&lt;div&gt;with NAND&lt;/div&gt;" style="rounded=1;whiteSpace=wrap;html=1;" parent="1" vertex="1">
          <mxGeometry x="210" y="160" width="120" height="60" as="geometry" />
        </mxCell>
        <mxCell id="nPTtFJBcblNeartGyqR0-5" style="edgeStyle=orthogonalEdgeStyle;rounded=0;orthogonalLoop=1;jettySize=auto;html=1;exitX=1;exitY=0.5;exitDx=0;exitDy=0;" edge="1" parent="1" source="SuiF_eCnqLfyTjt4aqKX-3">
          <mxGeometry relative="1" as="geometry">
            <mxPoint x="540" y="280" as="targetPoint" />
          </mxGeometry>
        </mxCell>
        <mxCell id="SuiF_eCnqLfyTjt4aqKX-3" value="&lt;b&gt;&lt;font style=&quot;font-size: 16px;&quot;&gt;AND&lt;/font&gt;&lt;/b&gt;&lt;div&gt;with NAND&lt;/div&gt;" style="rounded=1;whiteSpace=wrap;html=1;" parent="1" vertex="1">
          <mxGeometry x="210" y="250" width="120" height="60" as="geometry" />
        </mxCell>
        <mxCell id="SuiF_eCnqLfyTjt4aqKX-5" value="" style="endArrow=classic;html=1;rounded=0;entryX=0;entryY=0.25;entryDx=0;entryDy=0;" parent="1" edge="1">
          <mxGeometry width="50" height="50" relative="1" as="geometry">
            <mxPoint x="90" y="90" as="sourcePoint" />
            <mxPoint x="210" y="90" as="targetPoint" />
          </mxGeometry>
        </mxCell>
        <mxCell id="SuiF_eCnqLfyTjt4aqKX-6" value="" style="endArrow=classic;html=1;rounded=0;entryX=0;entryY=0.25;entryDx=0;entryDy=0;" parent="1" edge="1">
          <mxGeometry width="50" height="50" relative="1" as="geometry">
            <mxPoint x="90" y="110" as="sourcePoint" />
            <mxPoint x="210" y="110" as="targetPoint" />
          </mxGeometry>
        </mxCell>
        <mxCell id="SuiF_eCnqLfyTjt4aqKX-7" value="" style="endArrow=classic;html=1;rounded=0;entryX=0;entryY=0.25;entryDx=0;entryDy=0;edgeStyle=orthogonalEdgeStyle;" parent="1" edge="1">
          <mxGeometry width="50" height="50" relative="1" as="geometry">
            <mxPoint x="130" y="90" as="sourcePoint" />
            <mxPoint x="210" y="180" as="targetPoint" />
            <Array as="points">
              <mxPoint x="130" y="180" />
            </Array>
          </mxGeometry>
        </mxCell>
        <mxCell id="SuiF_eCnqLfyTjt4aqKX-8" value="" style="endArrow=classic;html=1;rounded=0;edgeStyle=orthogonalEdgeStyle;entryX=-0.011;entryY=0.324;entryDx=0;entryDy=0;entryPerimeter=0;" parent="1" target="SuiF_eCnqLfyTjt4aqKX-3" edge="1">
          <mxGeometry width="50" height="50" relative="1" as="geometry">
            <mxPoint x="150" y="90" as="sourcePoint" />
            <mxPoint x="180" y="270" as="targetPoint" />
            <Array as="points">
              <mxPoint x="150" y="269" />
            </Array>
          </mxGeometry>
        </mxCell>
        <mxCell id="SuiF_eCnqLfyTjt4aqKX-9" value="" style="endArrow=classic;html=1;rounded=0;entryX=0;entryY=0.25;entryDx=0;entryDy=0;" parent="1" edge="1">
          <mxGeometry width="50" height="50" relative="1" as="geometry">
            <mxPoint x="90" y="200" as="sourcePoint" />
            <mxPoint x="210" y="200" as="targetPoint" />
          </mxGeometry>
        </mxCell>
        <mxCell id="SuiF_eCnqLfyTjt4aqKX-11" value="" style="endArrow=classic;html=1;rounded=0;entryX=0;entryY=0.25;entryDx=0;entryDy=0;edgeStyle=orthogonalEdgeStyle;" parent="1" edge="1">
          <mxGeometry width="50" height="50" relative="1" as="geometry">
            <mxPoint x="130" y="200" as="sourcePoint" />
            <mxPoint x="210" y="290" as="targetPoint" />
            <Array as="points">
              <mxPoint x="130" y="290" />
            </Array>
          </mxGeometry>
        </mxCell>
        <mxCell id="SuiF_eCnqLfyTjt4aqKX-14" value="" style="shape=ellipse;fillColor=#000000;strokeColor=none;html=1;sketch=0;fontFamily=Helvetica;fontSize=11;fontColor=default;labelBackgroundColor=default;" parent="1" vertex="1">
          <mxGeometry x="146" y="86" width="7" height="7" as="geometry" />
        </mxCell>
        <mxCell id="SuiF_eCnqLfyTjt4aqKX-15" value="" style="shape=ellipse;fillColor=#000000;strokeColor=none;html=1;sketch=0;fontFamily=Helvetica;fontSize=11;fontColor=default;labelBackgroundColor=default;" parent="1" vertex="1">
          <mxGeometry x="126" y="86" width="7" height="7" as="geometry" />
        </mxCell>
        <mxCell id="SuiF_eCnqLfyTjt4aqKX-16" value="" style="shape=ellipse;fillColor=#000000;strokeColor=none;html=1;sketch=0;fontFamily=Helvetica;fontSize=11;fontColor=default;labelBackgroundColor=default;" parent="1" vertex="1">
          <mxGeometry x="127" y="196" width="7" height="7" as="geometry" />
        </mxCell>
        <mxCell id="nPTtFJBcblNeartGyqR0-4" style="edgeStyle=orthogonalEdgeStyle;rounded=0;orthogonalLoop=1;jettySize=auto;html=1;" edge="1" parent="1">
          <mxGeometry relative="1" as="geometry">
            <mxPoint x="540" y="260" as="targetPoint" />
            <mxPoint x="490" y="180" as="sourcePoint" />
            <Array as="points">
              <mxPoint x="510" y="180" />
              <mxPoint x="510" y="260" />
            </Array>
          </mxGeometry>
        </mxCell>
        <mxCell id="nPTtFJBcblNeartGyqR0-1" value="&lt;span style=&quot;font-size: 16px;&quot;&gt;&lt;b&gt;OR&lt;/b&gt;&lt;/span&gt;&lt;br&gt;&lt;div&gt;with NAND&lt;/div&gt;" style="rounded=1;whiteSpace=wrap;html=1;" vertex="1" parent="1">
          <mxGeometry x="370" y="149" width="120" height="60" as="geometry" />
        </mxCell>
        <mxCell id="nPTtFJBcblNeartGyqR0-2" style="edgeStyle=orthogonalEdgeStyle;rounded=0;orthogonalLoop=1;jettySize=auto;html=1;exitX=1;exitY=0.5;exitDx=0;exitDy=0;entryX=0;entryY=0.348;entryDx=0;entryDy=0;entryPerimeter=0;" edge="1" parent="1" source="SuiF_eCnqLfyTjt4aqKX-1" target="nPTtFJBcblNeartGyqR0-1">
          <mxGeometry relative="1" as="geometry">
            <mxPoint x="400" y="140" as="targetPoint" />
            <Array as="points">
              <mxPoint x="350" y="100" />
              <mxPoint x="350" y="170" />
            </Array>
          </mxGeometry>
        </mxCell>
        <mxCell id="nPTtFJBcblNeartGyqR0-7" style="edgeStyle=orthogonalEdgeStyle;rounded=0;orthogonalLoop=1;jettySize=auto;html=1;exitX=1;exitY=0.5;exitDx=0;exitDy=0;" edge="1" parent="1" source="nPTtFJBcblNeartGyqR0-6">
          <mxGeometry relative="1" as="geometry">
            <mxPoint x="690" y="269" as="targetPoint" />
          </mxGeometry>
        </mxCell>
        <mxCell id="nPTtFJBcblNeartGyqR0-6" value="&lt;span style=&quot;font-size: 16px;&quot;&gt;&lt;b&gt;OR&lt;/b&gt;&lt;/span&gt;&lt;br&gt;&lt;div&gt;with NAND&lt;/div&gt;" style="rounded=1;whiteSpace=wrap;html=1;" vertex="1" parent="1">
          <mxGeometry x="540" y="239" width="120" height="60" as="geometry" />
        </mxCell>
        <mxCell id="nPTtFJBcblNeartGyqR0-8" value="a" style="text;html=1;align=center;verticalAlign=middle;resizable=0;points=[];autosize=1;strokeColor=none;fillColor=none;" vertex="1" parent="1">
          <mxGeometry x="66" y="72.5" width="30" height="30" as="geometry" />
        </mxCell>
        <mxCell id="nPTtFJBcblNeartGyqR0-9" value="b" style="text;html=1;align=center;verticalAlign=middle;resizable=0;points=[];autosize=1;strokeColor=none;fillColor=none;" vertex="1" parent="1">
          <mxGeometry x="66" y="93" width="30" height="30" as="geometry" />
        </mxCell>
        <mxCell id="nPTtFJBcblNeartGyqR0-10" value="c" style="text;html=1;align=center;verticalAlign=middle;resizable=0;points=[];autosize=1;strokeColor=none;fillColor=none;" vertex="1" parent="1">
          <mxGeometry x="66" y="184" width="30" height="30" as="geometry" />
        </mxCell>
        <mxCell id="nPTtFJBcblNeartGyqR0-11" value="out" style="text;html=1;align=center;verticalAlign=middle;resizable=0;points=[];autosize=1;strokeColor=none;fillColor=none;" vertex="1" parent="1">
          <mxGeometry x="685" y="254" width="40" height="30" as="geometry" />
        </mxCell>
        <mxCell id="nPTtFJBcblNeartGyqR0-12" value="&lt;font color=&quot;#999999&quot;&gt;con1&lt;/font&gt;" style="text;html=1;align=center;verticalAlign=middle;resizable=0;points=[];autosize=1;strokeColor=none;fillColor=none;" vertex="1" parent="1">
          <mxGeometry x="330" y="74.5" width="50" height="30" as="geometry" />
        </mxCell>
        <mxCell id="nPTtFJBcblNeartGyqR0-13" value="&lt;font color=&quot;#999999&quot;&gt;con2&lt;/font&gt;" style="text;html=1;align=center;verticalAlign=middle;resizable=0;points=[];autosize=1;strokeColor=none;fillColor=none;" vertex="1" parent="1">
          <mxGeometry x="322" y="182" width="50" height="30" as="geometry" />
        </mxCell>
        <mxCell id="nPTtFJBcblNeartGyqR0-14" value="&lt;font color=&quot;#999999&quot;&gt;con3&lt;/font&gt;" style="text;html=1;align=center;verticalAlign=middle;resizable=0;points=[];autosize=1;strokeColor=none;fillColor=none;" vertex="1" parent="1">
          <mxGeometry x="482" y="154" width="50" height="30" as="geometry" />
        </mxCell>
        <mxCell id="nPTtFJBcblNeartGyqR0-15" value="&lt;font color=&quot;#999999&quot;&gt;con4&lt;/font&gt;" style="text;html=1;align=center;verticalAlign=middle;resizable=0;points=[];autosize=1;strokeColor=none;fillColor=none;" vertex="1" parent="1">
          <mxGeometry x="325" y="253" width="50" height="30" as="geometry" />
        </mxCell>
        <mxCell id="nPTtFJBcblNeartGyqR0-27" style="edgeStyle=orthogonalEdgeStyle;rounded=0;orthogonalLoop=1;jettySize=auto;html=1;exitX=1;exitY=0.5;exitDx=0;exitDy=0;" edge="1" parent="1" source="nPTtFJBcblNeartGyqR0-22">
          <mxGeometry relative="1" as="geometry">
            <mxPoint x="280" y="480" as="targetPoint" />
          </mxGeometry>
        </mxCell>
        <mxCell id="nPTtFJBcblNeartGyqR0-22" value="&lt;span style=&quot;font-size: 16px;&quot;&gt;&lt;b&gt;XOR&lt;/b&gt;&lt;/span&gt;&lt;br&gt;&lt;div&gt;with NAND&lt;/div&gt;" style="rounded=1;whiteSpace=wrap;html=1;" vertex="1" parent="1">
          <mxGeometry x="120" y="420" width="120" height="60" as="geometry" />
        </mxCell>
        <mxCell id="nPTtFJBcblNeartGyqR0-23" value="" style="endArrow=classic;html=1;rounded=0;entryX=0;entryY=0.333;entryDx=0;entryDy=0;entryPerimeter=0;" edge="1" parent="1" target="nPTtFJBcblNeartGyqR0-22">
          <mxGeometry width="50" height="50" relative="1" as="geometry">
            <mxPoint x="80" y="440" as="sourcePoint" />
            <mxPoint x="110" y="440" as="targetPoint" />
          </mxGeometry>
        </mxCell>
        <mxCell id="nPTtFJBcblNeartGyqR0-24" value="" style="endArrow=classic;html=1;rounded=0;entryX=0;entryY=0.333;entryDx=0;entryDy=0;entryPerimeter=0;" edge="1" parent="1">
          <mxGeometry width="50" height="50" relative="1" as="geometry">
            <mxPoint x="80" y="460" as="sourcePoint" />
            <mxPoint x="120" y="460" as="targetPoint" />
          </mxGeometry>
        </mxCell>
        <mxCell id="nPTtFJBcblNeartGyqR0-25" value="" style="endArrow=classic;html=1;rounded=0;" edge="1" parent="1">
          <mxGeometry width="50" height="50" relative="1" as="geometry">
            <mxPoint x="80" y="500" as="sourcePoint" />
            <mxPoint x="280" y="500" as="targetPoint" />
          </mxGeometry>
        </mxCell>
        <mxCell id="nPTtFJBcblNeartGyqR0-37" style="edgeStyle=orthogonalEdgeStyle;rounded=0;orthogonalLoop=1;jettySize=auto;html=1;exitX=1;exitY=0.5;exitDx=0;exitDy=0;" edge="1" parent="1" source="nPTtFJBcblNeartGyqR0-26">
          <mxGeometry relative="1" as="geometry">
            <mxPoint x="420" y="489.92592592592587" as="targetPoint" />
          </mxGeometry>
        </mxCell>
        <mxCell id="nPTtFJBcblNeartGyqR0-26" value="&lt;span style=&quot;font-size: 16px;&quot;&gt;&lt;b&gt;XOR&lt;/b&gt;&lt;/span&gt;&lt;br&gt;&lt;div&gt;with NAND&lt;/div&gt;" style="rounded=1;whiteSpace=wrap;html=1;" vertex="1" parent="1">
          <mxGeometry x="280" y="460" width="120" height="60" as="geometry" />
        </mxCell>
        <mxCell id="nPTtFJBcblNeartGyqR0-29" style="edgeStyle=orthogonalEdgeStyle;rounded=0;orthogonalLoop=1;jettySize=auto;html=1;" edge="1" parent="1">
          <mxGeometry relative="1" as="geometry">
            <mxPoint x="140" y="560" as="targetPoint" />
            <mxPoint x="100" y="460" as="sourcePoint" />
            <Array as="points">
              <mxPoint x="100" y="560" />
            </Array>
          </mxGeometry>
        </mxCell>
        <mxCell id="nPTtFJBcblNeartGyqR0-36" style="edgeStyle=orthogonalEdgeStyle;rounded=0;orthogonalLoop=1;jettySize=auto;html=1;exitX=1;exitY=0.5;exitDx=0;exitDy=0;" edge="1" parent="1" source="nPTtFJBcblNeartGyqR0-30">
          <mxGeometry relative="1" as="geometry">
            <mxPoint x="420" y="559.9259259259259" as="targetPoint" />
          </mxGeometry>
        </mxCell>
        <mxCell id="nPTtFJBcblNeartGyqR0-30" value="&lt;span style=&quot;font-size: 16px;&quot;&gt;&lt;b&gt;Majority&lt;/b&gt;&lt;/span&gt;" style="rounded=1;whiteSpace=wrap;html=1;" vertex="1" parent="1">
          <mxGeometry x="140" y="530" width="120" height="60" as="geometry" />
        </mxCell>
        <mxCell id="nPTtFJBcblNeartGyqR0-31" style="edgeStyle=orthogonalEdgeStyle;rounded=0;orthogonalLoop=1;jettySize=auto;html=1;" edge="1" parent="1">
          <mxGeometry relative="1" as="geometry">
            <mxPoint x="140" y="580" as="targetPoint" />
            <mxPoint x="89.5" y="440" as="sourcePoint" />
            <Array as="points">
              <mxPoint x="90" y="580" />
            </Array>
          </mxGeometry>
        </mxCell>
        <mxCell id="nPTtFJBcblNeartGyqR0-32" style="edgeStyle=orthogonalEdgeStyle;rounded=0;orthogonalLoop=1;jettySize=auto;html=1;" edge="1" parent="1">
          <mxGeometry relative="1" as="geometry">
            <mxPoint x="140" y="540" as="targetPoint" />
            <mxPoint x="110" y="500" as="sourcePoint" />
            <Array as="points">
              <mxPoint x="110" y="540" />
            </Array>
          </mxGeometry>
        </mxCell>
        <mxCell id="nPTtFJBcblNeartGyqR0-33" value="" style="shape=ellipse;fillColor=#000000;strokeColor=none;html=1;sketch=0;fontFamily=Helvetica;fontSize=11;fontColor=default;labelBackgroundColor=default;" vertex="1" parent="1">
          <mxGeometry x="86" y="436" width="7" height="7" as="geometry" />
        </mxCell>
        <mxCell id="nPTtFJBcblNeartGyqR0-34" value="" style="shape=ellipse;fillColor=#000000;strokeColor=none;html=1;sketch=0;fontFamily=Helvetica;fontSize=11;fontColor=default;labelBackgroundColor=default;" vertex="1" parent="1">
          <mxGeometry x="97" y="456" width="7" height="7" as="geometry" />
        </mxCell>
        <mxCell id="nPTtFJBcblNeartGyqR0-35" value="" style="shape=ellipse;fillColor=#000000;strokeColor=none;html=1;sketch=0;fontFamily=Helvetica;fontSize=11;fontColor=default;labelBackgroundColor=default;" vertex="1" parent="1">
          <mxGeometry x="107" y="496" width="7" height="7" as="geometry" />
        </mxCell>
        <mxCell id="nPTtFJBcblNeartGyqR0-38" value="a" style="text;html=1;align=center;verticalAlign=middle;resizable=0;points=[];autosize=1;strokeColor=none;fillColor=none;" vertex="1" parent="1">
          <mxGeometry x="56" y="423.5" width="30" height="30" as="geometry" />
        </mxCell>
        <mxCell id="nPTtFJBcblNeartGyqR0-39" value="b" style="text;html=1;align=center;verticalAlign=middle;resizable=0;points=[];autosize=1;strokeColor=none;fillColor=none;" vertex="1" parent="1">
          <mxGeometry x="56" y="443.5" width="30" height="30" as="geometry" />
        </mxCell>
        <mxCell id="nPTtFJBcblNeartGyqR0-40" value="cin" style="text;html=1;align=center;verticalAlign=middle;resizable=0;points=[];autosize=1;strokeColor=none;fillColor=none;" vertex="1" parent="1">
          <mxGeometry x="47" y="484.5" width="40" height="30" as="geometry" />
        </mxCell>
        <mxCell id="nPTtFJBcblNeartGyqR0-41" value="sum" style="text;html=1;align=center;verticalAlign=middle;resizable=0;points=[];autosize=1;strokeColor=none;fillColor=none;" vertex="1" parent="1">
          <mxGeometry x="410" y="475" width="50" height="30" as="geometry" />
        </mxCell>
        <mxCell id="nPTtFJBcblNeartGyqR0-42" value="cout" style="text;html=1;align=center;verticalAlign=middle;resizable=0;points=[];autosize=1;strokeColor=none;fillColor=none;" vertex="1" parent="1">
          <mxGeometry x="410" y="545" width="50" height="30" as="geometry" />
        </mxCell>
        <mxCell id="nPTtFJBcblNeartGyqR0-43" value="&lt;font color=&quot;#999999&quot;&gt;con1&lt;/font&gt;" style="text;html=1;align=center;verticalAlign=middle;resizable=0;points=[];autosize=1;strokeColor=none;fillColor=none;" vertex="1" parent="1">
          <mxGeometry x="232" y="426" width="50" height="30" as="geometry" />
        </mxCell>
        <mxCell id="nPTtFJBcblNeartGyqR0-45" value="&lt;div style=&quot;color: rgb(248, 248, 242); background-color: rgb(38, 41, 44); font-family: &amp;quot;Fira Code&amp;quot;, Consolas, &amp;quot;Courier New&amp;quot;, monospace, Menlo, Monaco, &amp;quot;Courier New&amp;quot;, monospace; font-size: 16px; line-height: 24px; white-space-collapse: preserve;&quot;&gt;Full_Adder&lt;/div&gt;" style="text;html=1;align=center;verticalAlign=middle;resizable=0;points=[];autosize=1;strokeColor=none;fillColor=none;" vertex="1" parent="1">
          <mxGeometry x="7" y="360" width="120" height="40" as="geometry" />
        </mxCell>
        <mxCell id="nPTtFJBcblNeartGyqR0-47" value="&lt;span style=&quot;font-size: 16px;&quot;&gt;&lt;b&gt;FA&lt;/b&gt;&lt;/span&gt;" style="rounded=1;whiteSpace=wrap;html=1;" vertex="1" parent="1">
          <mxGeometry x="120" y="730" width="120" height="120" as="geometry" />
        </mxCell>
        <mxCell id="nPTtFJBcblNeartGyqR0-48" value="" style="endArrow=classic;html=1;rounded=0;entryX=0;entryY=0.5;entryDx=0;entryDy=0;" edge="1" parent="1" target="nPTtFJBcblNeartGyqR0-47">
          <mxGeometry width="50" height="50" relative="1" as="geometry">
            <mxPoint x="80" y="790" as="sourcePoint" />
            <mxPoint x="110" y="790" as="targetPoint" />
          </mxGeometry>
        </mxCell>
        <mxCell id="nPTtFJBcblNeartGyqR0-49" value="" style="endArrow=classic;html=1;rounded=0;entryX=0;entryY=0.5;entryDx=0;entryDy=0;" edge="1" parent="1">
          <mxGeometry width="50" height="50" relative="1" as="geometry">
            <mxPoint x="240" y="789.8" as="sourcePoint" />
            <mxPoint x="280" y="789.8" as="targetPoint" />
          </mxGeometry>
        </mxCell>
        <mxCell id="nPTtFJBcblNeartGyqR0-50" value="" style="endArrow=classic;html=1;rounded=0;" edge="1" parent="1">
          <mxGeometry width="50" height="50" relative="1" as="geometry">
            <mxPoint x="160" y="700" as="sourcePoint" />
            <mxPoint x="160" y="730" as="targetPoint" />
          </mxGeometry>
        </mxCell>
        <mxCell id="nPTtFJBcblNeartGyqR0-52" value="" style="endArrow=classic;html=1;rounded=0;" edge="1" parent="1">
          <mxGeometry width="50" height="50" relative="1" as="geometry">
            <mxPoint x="199.8" y="700" as="sourcePoint" />
            <mxPoint x="199.8" y="730" as="targetPoint" />
          </mxGeometry>
        </mxCell>
        <mxCell id="nPTtFJBcblNeartGyqR0-53" value="" style="endArrow=classic;html=1;rounded=0;" edge="1" parent="1">
          <mxGeometry width="50" height="50" relative="1" as="geometry">
            <mxPoint x="179.8" y="850" as="sourcePoint" />
            <mxPoint x="179.8" y="880" as="targetPoint" />
          </mxGeometry>
        </mxCell>
        <mxCell id="nPTtFJBcblNeartGyqR0-54" value="sum" style="text;html=1;align=center;verticalAlign=middle;resizable=0;points=[];autosize=1;strokeColor=none;fillColor=none;" vertex="1" parent="1">
          <mxGeometry x="155" y="825" width="50" height="30" as="geometry" />
        </mxCell>
        <mxCell id="nPTtFJBcblNeartGyqR0-55" value="cin" style="text;html=1;align=center;verticalAlign=middle;resizable=0;points=[];autosize=1;strokeColor=none;fillColor=none;" vertex="1" parent="1">
          <mxGeometry x="109.5" y="774" width="40" height="30" as="geometry" />
        </mxCell>
        <mxCell id="nPTtFJBcblNeartGyqR0-56" value="cout" style="text;html=1;align=center;verticalAlign=middle;resizable=0;points=[];autosize=1;strokeColor=none;fillColor=none;" vertex="1" parent="1">
          <mxGeometry x="200" y="775" width="50" height="30" as="geometry" />
        </mxCell>
        <mxCell id="nPTtFJBcblNeartGyqR0-57" value="a" style="text;html=1;align=center;verticalAlign=middle;resizable=0;points=[];autosize=1;strokeColor=none;fillColor=none;" vertex="1" parent="1">
          <mxGeometry x="145" y="721" width="30" height="30" as="geometry" />
        </mxCell>
        <mxCell id="nPTtFJBcblNeartGyqR0-58" value="b" style="text;html=1;align=center;verticalAlign=middle;resizable=0;points=[];autosize=1;strokeColor=none;fillColor=none;" vertex="1" parent="1">
          <mxGeometry x="185" y="721" width="30" height="30" as="geometry" />
        </mxCell>
        <mxCell id="nPTtFJBcblNeartGyqR0-69" value="a[0]" style="text;html=1;align=center;verticalAlign=middle;resizable=0;points=[];autosize=1;strokeColor=none;fillColor=none;" vertex="1" parent="1">
          <mxGeometry x="140" y="673" width="40" height="30" as="geometry" />
        </mxCell>
        <mxCell id="nPTtFJBcblNeartGyqR0-70" value="b[0]" style="text;html=1;align=center;verticalAlign=middle;resizable=0;points=[];autosize=1;strokeColor=none;fillColor=none;" vertex="1" parent="1">
          <mxGeometry x="180" y="673" width="40" height="30" as="geometry" />
        </mxCell>
        <mxCell id="nPTtFJBcblNeartGyqR0-71" value="cin" style="text;html=1;align=center;verticalAlign=middle;resizable=0;points=[];autosize=1;strokeColor=none;fillColor=none;" vertex="1" parent="1">
          <mxGeometry x="47" y="774" width="40" height="30" as="geometry" />
        </mxCell>
        <mxCell id="nPTtFJBcblNeartGyqR0-72" value="sum[0]" style="text;html=1;align=center;verticalAlign=middle;resizable=0;points=[];autosize=1;strokeColor=none;fillColor=none;" vertex="1" parent="1">
          <mxGeometry x="150" y="873" width="60" height="30" as="geometry" />
        </mxCell>
        <mxCell id="nPTtFJBcblNeartGyqR0-73" value="&lt;span style=&quot;font-size: 16px;&quot;&gt;&lt;b&gt;FA&lt;/b&gt;&lt;/span&gt;" style="rounded=1;whiteSpace=wrap;html=1;" vertex="1" parent="1">
          <mxGeometry x="280.25" y="730" width="120" height="120" as="geometry" />
        </mxCell>
        <mxCell id="nPTtFJBcblNeartGyqR0-74" value="" style="endArrow=classic;html=1;rounded=0;entryX=0;entryY=0.5;entryDx=0;entryDy=0;" edge="1" parent="1">
          <mxGeometry width="50" height="50" relative="1" as="geometry">
            <mxPoint x="400.25" y="789.8" as="sourcePoint" />
            <mxPoint x="440.25" y="789.8" as="targetPoint" />
          </mxGeometry>
        </mxCell>
        <mxCell id="nPTtFJBcblNeartGyqR0-75" value="" style="endArrow=classic;html=1;rounded=0;" edge="1" parent="1">
          <mxGeometry width="50" height="50" relative="1" as="geometry">
            <mxPoint x="320.25" y="700" as="sourcePoint" />
            <mxPoint x="320.25" y="730" as="targetPoint" />
          </mxGeometry>
        </mxCell>
        <mxCell id="nPTtFJBcblNeartGyqR0-76" value="" style="endArrow=classic;html=1;rounded=0;" edge="1" parent="1">
          <mxGeometry width="50" height="50" relative="1" as="geometry">
            <mxPoint x="360.05" y="700" as="sourcePoint" />
            <mxPoint x="360.05" y="730" as="targetPoint" />
          </mxGeometry>
        </mxCell>
        <mxCell id="nPTtFJBcblNeartGyqR0-77" value="" style="endArrow=classic;html=1;rounded=0;" edge="1" parent="1">
          <mxGeometry width="50" height="50" relative="1" as="geometry">
            <mxPoint x="340.05" y="850" as="sourcePoint" />
            <mxPoint x="340.05" y="880" as="targetPoint" />
          </mxGeometry>
        </mxCell>
        <mxCell id="nPTtFJBcblNeartGyqR0-78" value="sum" style="text;html=1;align=center;verticalAlign=middle;resizable=0;points=[];autosize=1;strokeColor=none;fillColor=none;" vertex="1" parent="1">
          <mxGeometry x="315.25" y="825" width="50" height="30" as="geometry" />
        </mxCell>
        <mxCell id="nPTtFJBcblNeartGyqR0-79" value="cin" style="text;html=1;align=center;verticalAlign=middle;resizable=0;points=[];autosize=1;strokeColor=none;fillColor=none;" vertex="1" parent="1">
          <mxGeometry x="269.75" y="774" width="40" height="30" as="geometry" />
        </mxCell>
        <mxCell id="nPTtFJBcblNeartGyqR0-80" value="cout" style="text;html=1;align=center;verticalAlign=middle;resizable=0;points=[];autosize=1;strokeColor=none;fillColor=none;" vertex="1" parent="1">
          <mxGeometry x="360.25" y="775" width="50" height="30" as="geometry" />
        </mxCell>
        <mxCell id="nPTtFJBcblNeartGyqR0-81" value="a" style="text;html=1;align=center;verticalAlign=middle;resizable=0;points=[];autosize=1;strokeColor=none;fillColor=none;" vertex="1" parent="1">
          <mxGeometry x="305.25" y="721" width="30" height="30" as="geometry" />
        </mxCell>
        <mxCell id="nPTtFJBcblNeartGyqR0-82" value="b" style="text;html=1;align=center;verticalAlign=middle;resizable=0;points=[];autosize=1;strokeColor=none;fillColor=none;" vertex="1" parent="1">
          <mxGeometry x="345.25" y="721" width="30" height="30" as="geometry" />
        </mxCell>
        <mxCell id="nPTtFJBcblNeartGyqR0-83" value="a[1]" style="text;html=1;align=center;verticalAlign=middle;resizable=0;points=[];autosize=1;strokeColor=none;fillColor=none;" vertex="1" parent="1">
          <mxGeometry x="300.25" y="673" width="40" height="30" as="geometry" />
        </mxCell>
        <mxCell id="nPTtFJBcblNeartGyqR0-84" value="b[1]" style="text;html=1;align=center;verticalAlign=middle;resizable=0;points=[];autosize=1;strokeColor=none;fillColor=none;" vertex="1" parent="1">
          <mxGeometry x="340.25" y="673" width="40" height="30" as="geometry" />
        </mxCell>
        <mxCell id="nPTtFJBcblNeartGyqR0-85" value="sum[1]" style="text;html=1;align=center;verticalAlign=middle;resizable=0;points=[];autosize=1;strokeColor=none;fillColor=none;" vertex="1" parent="1">
          <mxGeometry x="310.25" y="873" width="60" height="30" as="geometry" />
        </mxCell>
        <mxCell id="nPTtFJBcblNeartGyqR0-86" value="" style="shape=ellipse;fillColor=#000000;strokeColor=none;html=1;sketch=0;fontFamily=Helvetica;fontSize=11;fontColor=default;labelBackgroundColor=default;" vertex="1" parent="1">
          <mxGeometry x="445" y="786.5" width="7" height="7" as="geometry" />
        </mxCell>
        <mxCell id="nPTtFJBcblNeartGyqR0-87" value="" style="shape=ellipse;fillColor=#000000;strokeColor=none;html=1;sketch=0;fontFamily=Helvetica;fontSize=11;fontColor=default;labelBackgroundColor=default;" vertex="1" parent="1">
          <mxGeometry x="457" y="786.5" width="7" height="7" as="geometry" />
        </mxCell>
        <mxCell id="nPTtFJBcblNeartGyqR0-88" value="" style="shape=ellipse;fillColor=#000000;strokeColor=none;html=1;sketch=0;fontFamily=Helvetica;fontSize=11;fontColor=default;labelBackgroundColor=default;" vertex="1" parent="1">
          <mxGeometry x="469" y="786.5" width="7" height="7" as="geometry" />
        </mxCell>
        <mxCell id="nPTtFJBcblNeartGyqR0-89" value="" style="endArrow=classic;html=1;rounded=0;entryX=0;entryY=0.5;entryDx=0;entryDy=0;" edge="1" parent="1">
          <mxGeometry width="50" height="50" relative="1" as="geometry">
            <mxPoint x="480" y="789.8" as="sourcePoint" />
            <mxPoint x="520" y="789.8" as="targetPoint" />
          </mxGeometry>
        </mxCell>
        <mxCell id="nPTtFJBcblNeartGyqR0-90" value="&lt;span style=&quot;font-size: 16px;&quot;&gt;&lt;b&gt;FA&lt;/b&gt;&lt;/span&gt;" style="rounded=1;whiteSpace=wrap;html=1;" vertex="1" parent="1">
          <mxGeometry x="520.25" y="730" width="120" height="120" as="geometry" />
        </mxCell>
        <mxCell id="nPTtFJBcblNeartGyqR0-91" value="" style="endArrow=classic;html=1;rounded=0;entryX=0;entryY=0.5;entryDx=0;entryDy=0;" edge="1" parent="1">
          <mxGeometry width="50" height="50" relative="1" as="geometry">
            <mxPoint x="640.25" y="789.8" as="sourcePoint" />
            <mxPoint x="680.25" y="789.8" as="targetPoint" />
          </mxGeometry>
        </mxCell>
        <mxCell id="nPTtFJBcblNeartGyqR0-92" value="" style="endArrow=classic;html=1;rounded=0;" edge="1" parent="1">
          <mxGeometry width="50" height="50" relative="1" as="geometry">
            <mxPoint x="560.25" y="700" as="sourcePoint" />
            <mxPoint x="560.25" y="730" as="targetPoint" />
          </mxGeometry>
        </mxCell>
        <mxCell id="nPTtFJBcblNeartGyqR0-93" value="" style="endArrow=classic;html=1;rounded=0;" edge="1" parent="1">
          <mxGeometry width="50" height="50" relative="1" as="geometry">
            <mxPoint x="600.05" y="700" as="sourcePoint" />
            <mxPoint x="600.05" y="730" as="targetPoint" />
          </mxGeometry>
        </mxCell>
        <mxCell id="nPTtFJBcblNeartGyqR0-94" value="" style="endArrow=classic;html=1;rounded=0;" edge="1" parent="1">
          <mxGeometry width="50" height="50" relative="1" as="geometry">
            <mxPoint x="580.05" y="850" as="sourcePoint" />
            <mxPoint x="580.05" y="880" as="targetPoint" />
          </mxGeometry>
        </mxCell>
        <mxCell id="nPTtFJBcblNeartGyqR0-95" value="sum" style="text;html=1;align=center;verticalAlign=middle;resizable=0;points=[];autosize=1;strokeColor=none;fillColor=none;" vertex="1" parent="1">
          <mxGeometry x="555.25" y="825" width="50" height="30" as="geometry" />
        </mxCell>
        <mxCell id="nPTtFJBcblNeartGyqR0-96" value="cin" style="text;html=1;align=center;verticalAlign=middle;resizable=0;points=[];autosize=1;strokeColor=none;fillColor=none;" vertex="1" parent="1">
          <mxGeometry x="509.75" y="774" width="40" height="30" as="geometry" />
        </mxCell>
        <mxCell id="nPTtFJBcblNeartGyqR0-97" value="cout" style="text;html=1;align=center;verticalAlign=middle;resizable=0;points=[];autosize=1;strokeColor=none;fillColor=none;" vertex="1" parent="1">
          <mxGeometry x="600.25" y="775" width="50" height="30" as="geometry" />
        </mxCell>
        <mxCell id="nPTtFJBcblNeartGyqR0-98" value="a" style="text;html=1;align=center;verticalAlign=middle;resizable=0;points=[];autosize=1;strokeColor=none;fillColor=none;" vertex="1" parent="1">
          <mxGeometry x="545.25" y="721" width="30" height="30" as="geometry" />
        </mxCell>
        <mxCell id="nPTtFJBcblNeartGyqR0-99" value="b" style="text;html=1;align=center;verticalAlign=middle;resizable=0;points=[];autosize=1;strokeColor=none;fillColor=none;" vertex="1" parent="1">
          <mxGeometry x="585.25" y="721" width="30" height="30" as="geometry" />
        </mxCell>
        <mxCell id="nPTtFJBcblNeartGyqR0-100" value="a[7]" style="text;html=1;align=center;verticalAlign=middle;resizable=0;points=[];autosize=1;strokeColor=none;fillColor=none;" vertex="1" parent="1">
          <mxGeometry x="540.25" y="673" width="40" height="30" as="geometry" />
        </mxCell>
        <mxCell id="nPTtFJBcblNeartGyqR0-101" value="b[7]" style="text;html=1;align=center;verticalAlign=middle;resizable=0;points=[];autosize=1;strokeColor=none;fillColor=none;" vertex="1" parent="1">
          <mxGeometry x="580.25" y="673" width="40" height="30" as="geometry" />
        </mxCell>
        <mxCell id="nPTtFJBcblNeartGyqR0-102" value="sum[7]" style="text;html=1;align=center;verticalAlign=middle;resizable=0;points=[];autosize=1;strokeColor=none;fillColor=none;" vertex="1" parent="1">
          <mxGeometry x="550.25" y="873" width="60" height="30" as="geometry" />
        </mxCell>
        <mxCell id="nPTtFJBcblNeartGyqR0-105" value="cout" style="text;html=1;align=center;verticalAlign=middle;resizable=0;points=[];autosize=1;strokeColor=none;fillColor=none;" vertex="1" parent="1">
          <mxGeometry x="669" y="774" width="50" height="30" as="geometry" />
        </mxCell>
        <mxCell id="nPTtFJBcblNeartGyqR0-106" value="&lt;span style=&quot;color: rgba(0, 0, 0, 0); font-family: monospace; font-size: 0px; text-align: start; text-wrap: nowrap; background-color: rgb(251, 251, 251);&quot;&gt;%3CmxGraphModel%3E%3Croot%3E%3CmxCell%20id%3D%220%22%2F%3E%3CmxCell%20id%3D%221%22%20parent%3D%220%22%2F%3E%3CmxCell%20id%3D%222%22%20value%3D%22%22%20style%3D%22group%22%20vertex%3D%221%22%20connectable%3D%220%22%20parent%3D%221%22%3E%3CmxGeometry%20x%3D%2240%22%20y%3D%2240%22%20width%3D%22655%22%20height%3D%22660%22%20as%3D%22geometry%22%2F%3E%3C%2FmxCell%3E%3CmxCell%20id%3D%223%22%20style%3D%22edgeStyle%3DorthogonalEdgeStyle%3Bshape%3Dconnector%3Brounded%3D0%3BorthogonalLoop%3D1%3BjettySize%3Dauto%3Bhtml%3D1%3BexitX%3D0%3BexitY%3D0.75%3BexitDx%3D0%3BexitDy%3D0%3BexitPerimeter%3D0%3BstrokeColor%3Ddefault%3Balign%3Dcenter%3BverticalAlign%3Dmiddle%3BfontFamily%3DHelvetica%3BfontSize%3D11%3BfontColor%3Ddefault%3BlabelBackgroundColor%3Ddefault%3BendArrow%3Dnone%3BendFill%3D0%3B%22%20edge%3D%221%22%20parent%3D%222%22%20source%3D%224%22%3E%3CmxGeometry%20relative%3D%221%22%20as%3D%22geometry%22%3E%3CmxPoint%20x%3D%22465%22%20y%3D%2270%22%20as%3D%22targetPoint%22%2F%3E%3C%2FmxGeometry%3E%3C%2FmxCell%3E%3CmxCell%20id%3D%224%22%20value%3D%22%26lt%3Bp%20style%3D%26quot%3Bline-height%3A%20110%25%3B%26quot%3B%26gt%3B%26lt%3Bbr%26gt%3B%26lt%3B%2Fp%26gt%3B%22%20style%3D%22verticalLabelPosition%3Dbottom%3Bshadow%3D0%3Bdashed%3D0%3Balign%3Dcenter%3Bhtml%3D1%3BverticalAlign%3Dtop%3Bshape%3Dmxgraph.electrical.logic_gates.logic_gate%3Boperation%3Dand%3BspacingTop%3D-20%3B%22%20vertex%3D%221%22%20parent%3D%222%22%3E%3CmxGeometry%20x%3D%22485%22%20y%3D%2224%22%20width%3D%22100%22%20height%3D%2260%22%20as%3D%22geometry%22%2F%3E%3C%2FmxCell%3E%3CmxCell%20id%3D%225%22%20style%3D%22edgeStyle%3DorthogonalEdgeStyle%3Bshape%3Dconnector%3Brounded%3D0%3BorthogonalLoop%3D1%3BjettySize%3Dauto%3Bhtml%3D1%3BexitX%3D0%3BexitY%3D0.25%3BexitDx%3D0%3BexitDy%3D0%3BexitPerimeter%3D0%3BstrokeColor%3Ddefault%3Balign%3Dcenter%3BverticalAlign%3Dmiddle%3BfontFamily%3DHelvetica%3BfontSize%3D11%3BfontColor%3Ddefault%3BlabelBackgroundColor%3Ddefault%3BendArrow%3Dnone%3BendFill%3D0%3B%22%20edge%3D%221%22%20parent%3D%222%22%20source%3D%227%22%3E%3CmxGeometry%20relative%3D%221%22%20as%3D%22geometry%22%3E%3CmxPoint%20x%3D%2285%22%20y%3D%22109%22%20as%3D%22targetPoint%22%2F%3E%3C%2FmxGeometry%3E%3C%2FmxCell%3E%3CmxCell%20id%3D%226%22%20style%3D%22edgeStyle%3DorthogonalEdgeStyle%3Bshape%3Dconnector%3Brounded%3D0%3BorthogonalLoop%3D1%3BjettySize%3Dauto%3Bhtml%3D1%3BexitX%3D0%3BexitY%3D0.75%3BexitDx%3D0%3BexitDy%3D0%3BexitPerimeter%3D0%3BstrokeColor%3Ddefault%3Balign%3Dcenter%3BverticalAlign%3Dmiddle%3BfontFamily%3DHelvetica%3BfontSize%3D11%3BfontColor%3Ddefault%3BlabelBackgroundColor%3Ddefault%3BendArrow%3Dnone%3BendFill%3D0%3B%22%20edge%3D%221%22%20parent%3D%222%22%20source%3D%227%22%3E%3CmxGeometry%20relative%3D%221%22%20as%3D%22geometry%22%3E%3CmxPoint%20x%3D%22465%22%20y%3D%22138.83333333333337%22%20as%3D%22targetPoint%22%2F%3E%3C%2FmxGeometry%3E%3C%2FmxCell%3E%3CmxCell%20id%3D%227%22%20value%3D%22%26lt%3Bp%20style%3D%26quot%3Bline-height%3A%20110%25%3B%26quot%3B%26gt%3B%26lt%3Bbr%26gt%3B%26lt%3B%2Fp%26gt%3B%22%20style%3D%22verticalLabelPosition%3Dbottom%3Bshadow%3D0%3Bdashed%3D0%3Balign%3Dcenter%3Bhtml%3D1%3BverticalAlign%3Dtop%3Bshape%3Dmxgraph.electrical.logic_gates.logic_gate%3Boperation%3Dand%3BspacingTop%3D-20%3B%22%20vertex%3D%221%22%20parent%3D%222%22%3E%3CmxGeometry%20x%3D%22485%22%20y%3D%2294%22%20width%3D%22100%22%20height%3D%2260%22%20as%3D%22geometry%22%2F%3E%3C%2FmxCell%3E%3CmxCell%20id%3D%228%22%20style%3D%22edgeStyle%3DorthogonalEdgeStyle%3Bshape%3Dconnector%3Brounded%3D0%3BorthogonalLoop%3D1%3BjettySize%3Dauto%3Bhtml%3D1%3BexitX%3D0%3BexitY%3D0.25%3BexitDx%3D0%3BexitDy%3D0%3BexitPerimeter%3D0%3BstrokeColor%3Ddefault%3Balign%3Dcenter%3BverticalAlign%3Dmiddle%3BfontFamily%3DHelvetica%3BfontSize%3D11%3BfontColor%3Ddefault%3BlabelBackgroundColor%3Ddefault%3BendArrow%3Dnone%3BendFill%3D0%3B%22%20edge%3D%221%22%20parent%3D%222%22%20source%3D%2210%22%3E%3CmxGeometry%20relative%3D%221%22%20as%3D%22geometry%22%3E%3CmxPoint%20x%3D%2285%22%20y%3D%22179%22%20as%3D%22targetPoint%22%2F%3E%3C%2FmxGeometry%3E%3C%2FmxCell%3E%3CmxCell%20id%3D%229%22%20style%3D%22edgeStyle%3DorthogonalEdgeStyle%3Bshape%3Dconnector%3Brounded%3D0%3BorthogonalLoop%3D1%3BjettySize%3Dauto%3Bhtml%3D1%3BexitX%3D0%3BexitY%3D0.75%3BexitDx%3D0%3BexitDy%3D0%3BexitPerimeter%3D0%3BstrokeColor%3Ddefault%3Balign%3Dcenter%3BverticalAlign%3Dmiddle%3BfontFamily%3DHelvetica%3BfontSize%3D11%3BfontColor%3Ddefault%3BlabelBackgroundColor%3Ddefault%3BendArrow%3Dnone%3BendFill%3D0%3B%22%20edge%3D%221%22%20parent%3D%222%22%20source%3D%2210%22%3E%3CmxGeometry%20relative%3D%221%22%20as%3D%22geometry%22%3E%3CmxPoint%20x%3D%22465%22%20y%3D%22209.9999999999999%22%20as%3D%22targetPoint%22%2F%3E%3C%2FmxGeometry%3E%3C%2FmxCell%3E%3CmxCell%20id%3D%2210%22%20value%3D%22%26lt%3Bp%20style%3D%26quot%3Bline-height%3A%20110%25%3B%26quot%3B%26gt%3B%26lt%3Bbr%26gt%3B%26lt%3B%2Fp%26gt%3B%22%20style%3D%22verticalLabelPosition%3Dbottom%3Bshadow%3D0%3Bdashed%3D0%3Balign%3Dcenter%3Bhtml%3D1%3BverticalAlign%3Dtop%3Bshape%3Dmxgraph.electrical.logic_gates.logic_gate%3Boperation%3Dand%3BspacingTop%3D-20%3B%22%20vertex%3D%221%22%20parent%3D%222%22%3E%3CmxGeometry%20x%3D%22485%22%20y%3D%22164%22%20width%3D%22100%22%20height%3D%2260%22%20as%3D%22geometry%22%2F%3E%3C%2FmxCell%3E%3CmxCell%20id%3D%2211%22%20style%3D%22edgeStyle%3DorthogonalEdgeStyle%3Bshape%3Dconnector%3Brounded%3D0%3BorthogonalLoop%3D1%3BjettySize%3Dauto%3Bhtml%3D1%3BexitX%3D0%3BexitY%3D0.25%3BexitDx%3D0%3BexitDy%3D0%3BexitPerimeter%3D0%3BstrokeColor%3Ddefault%3Balign%3Dcenter%3BverticalAlign%3Dmiddle%3BfontFamily%3DHelvetica%3BfontSize%3D11%3BfontColor%3Ddefault%3BlabelBackgroundColor%3Ddefault%3BendArrow%3Dnone%3BendFill%3D0%3B%22%20edge%3D%221%22%20parent%3D%222%22%20source%3D%2213%22%3E%3CmxGeometry%20relative%3D%221%22%20as%3D%22geometry%22%3E%3CmxPoint%20x%3D%2285%22%20y%3D%22249%22%20as%3D%22targetPoint%22%2F%3E%3C%2FmxGeometry%3E%3C%2FmxCell%3E%3CmxCell%20id%3D%2212%22%20style%3D%22edgeStyle%3DorthogonalEdgeStyle%3Bshape%3Dconnector%3Brounded%3D0%3BorthogonalLoop%3D1%3BjettySize%3Dauto%3Bhtml%3D1%3BexitX%3D0%3BexitY%3D0.75%3BexitDx%3D0%3BexitDy%3D0%3BexitPerimeter%3D0%3BstrokeColor%3Ddefault%3Balign%3Dcenter%3BverticalAlign%3Dmiddle%3BfontFamily%3DHelvetica%3BfontSize%3D11%3BfontColor%3Ddefault%3BlabelBackgroundColor%3Ddefault%3BendArrow%3Dnone%3BendFill%3D0%3B%22%20edge%3D%221%22%20parent%3D%222%22%20source%3D%2213%22%3E%3CmxGeometry%20relative%3D%221%22%20as%3D%22geometry%22%3E%3CmxPoint%20x%3D%22465%22%20y%3D%22278.8333333333335%22%20as%3D%22targetPoint%22%2F%3E%3C%2FmxGeometry%3E%3C%2FmxCell%3E%3CmxCell%20id%3D%2213%22%20value%3D%22%26lt%3Bp%20style%3D%26quot%3Bline-height%3A%20110%25%3B%26quot%3B%26gt%3B%26lt%3Bbr%26gt%3B%26lt%3B%2Fp%26gt%3B%22%20style%3D%22verticalLabelPosition%3Dbottom%3Bshadow%3D0%3Bdashed%3D0%3Balign%3Dcenter%3Bhtml%3D1%3BverticalAlign%3Dtop%3Bshape%3Dmxgraph.electrical.logic_gates.logic_gate%3Boperation%3Dand%3BspacingTop%3D-20%3B%22%20vertex%3D%221%22%20parent%3D%222%22%3E%3CmxGeometry%20x%3D%22485%22%20y%3D%22234%22%20width%3D%22100%22%20height%3D%2260%22%20as%3D%22geometry%22%2F%3E%3C%2FmxCell%3E%3CmxCell%20id%3D%2214%22%20style%3D%22edgeStyle%3DorthogonalEdgeStyle%3Brounded%3D0%3BorthogonalLoop%3D1%3BjettySize%3Dauto%3Bhtml%3D1%3BexitX%3D0%3BexitY%3D0.25%3BexitDx%3D0%3BexitDy%3D0%3BexitPerimeter%3D0%3BendArrow%3Dnone%3BendFill%3D0%3BentryX%3D0.5%3BentryY%3D1%3BentryDx%3D0%3BentryDy%3D0%3B%22%20edge%3D%221%22%20parent%3D%222%22%20source%3D%2216%22%20target%3D%2236%22%3E%3CmxGeometry%20relative%3D%221%22%20as%3D%22geometry%22%3E%3CmxPoint%20x%3D%22345%22%20y%3D%22338.8333333333335%22%20as%3D%22targetPoint%22%2F%3E%3C%2FmxGeometry%3E%3C%2FmxCell%3E%3CmxCell%20id%3D%2215%22%20style%3D%22edgeStyle%3DorthogonalEdgeStyle%3Bshape%3Dconnector%3Brounded%3D0%3BorthogonalLoop%3D1%3BjettySize%3Dauto%3Bhtml%3D1%3BexitX%3D0%3BexitY%3D0.75%3BexitDx%3D0%3BexitDy%3D0%3BexitPerimeter%3D0%3BstrokeColor%3Ddefault%3Balign%3Dcenter%3BverticalAlign%3Dmiddle%3BfontFamily%3DHelvetica%3BfontSize%3D11%3BfontColor%3Ddefault%3BlabelBackgroundColor%3Ddefault%3BendArrow%3Dnone%3BendFill%3D0%3B%22%20edge%3D%221%22%20parent%3D%222%22%20source%3D%2216%22%3E%3CmxGeometry%20relative%3D%221%22%20as%3D%22geometry%22%3E%3CmxPoint%20x%3D%22465%22%20y%3D%22368.8333333333335%22%20as%3D%22targetPoint%22%2F%3E%3C%2FmxGeometry%3E%3C%2FmxCell%3E%3CmxCell%20id%3D%2216%22%20value%3D%22%26lt%3Bp%20style%3D%26quot%3Bline-height%3A%20110%25%3B%26quot%3B%26gt%3B%26lt%3Bbr%26gt%3B%26lt%3B%2Fp%26gt%3B%22%20style%3D%22verticalLabelPosition%3Dbottom%3Bshadow%3D0%3Bdashed%3D0%3Balign%3Dcenter%3Bhtml%3D1%3BverticalAlign%3Dtop%3Bshape%3Dmxgraph.electrical.logic_gates.logic_gate%3Boperation%3Dand%3BspacingTop%3D-20%3B%22%20vertex%3D%221%22%20parent%3D%222%22%3E%3CmxGeometry%20x%3D%22485%22%20y%3D%22324%22%20width%3D%22100%22%20height%3D%2260%22%20as%3D%22geometry%22%2F%3E%3C%2FmxCell%3E%3CmxCell%20id%3D%2217%22%20style%3D%22rounded%3D0%3BorthogonalLoop%3D1%3BjettySize%3Dauto%3Bhtml%3D1%3BexitX%3D0%3BexitY%3D0.25%3BexitDx%3D0%3BexitDy%3D0%3BexitPerimeter%3D0%3BedgeStyle%3DorthogonalEdgeStyle%3BendArrow%3Dnone%3BendFill%3D0%3BentryX%3D0.5%3BentryY%3D1%3BentryDx%3D0%3BentryDy%3D0%3B%22%20edge%3D%221%22%20parent%3D%222%22%20source%3D%2219%22%20target%3D%2237%22%3E%3CmxGeometry%20relative%3D%221%22%20as%3D%22geometry%22%3E%3CmxPoint%20x%3D%22305%22%20y%3D%22110%22%20as%3D%22targetPoint%22%2F%3E%3C%2FmxGeometry%3E%3C%2FmxCell%3E%3CmxCell%20id%3D%2218%22%20style%3D%22edgeStyle%3DorthogonalEdgeStyle%3Bshape%3Dconnector%3Brounded%3D0%3BorthogonalLoop%3D1%3BjettySize%3Dauto%3Bhtml%3D1%3BexitX%3D0%3BexitY%3D0.75%3BexitDx%3D0%3BexitDy%3D0%3BexitPerimeter%3D0%3BstrokeColor%3Ddefault%3Balign%3Dcenter%3BverticalAlign%3Dmiddle%3BfontFamily%3DHelvetica%3BfontSize%3D11%3BfontColor%3Ddefault%3BlabelBackgroundColor%3Ddefault%3BendArrow%3Dnone%3BendFill%3D0%3B%22%20edge%3D%221%22%20parent%3D%222%22%20source%3D%2219%22%3E%3CmxGeometry%20relative%3D%221%22%20as%3D%22geometry%22%3E%3CmxPoint%20x%3D%22465%22%20y%3D%22438.8333333333335%22%20as%3D%22targetPoint%22%2F%3E%3C%2FmxGeometry%3E%3C%2FmxCell%3E%3CmxCell%20id%3D%2219%22%20value%3D%22%26lt%3Bp%20style%3D%26quot%3Bline-height%3A%20110%25%3B%26quot%3B%26gt%3B%26lt%3Bbr%26gt%3B%26lt%3B%2Fp%26gt%3B%22%20style%3D%22verticalLabelPosition%3Dbottom%3Bshadow%3D0%3Bdashed%3D0%3Balign%3Dcenter%3Bhtml%3D1%3BverticalAlign%3Dtop%3Bshape%3Dmxgraph.electrical.logic_gates.logic_gate%3Boperation%3Dand%3BspacingTop%3D-20%3B%22%20vertex%3D%221%22%20parent%3D%222%22%3E%3CmxGeometry%20x%3D%22485%22%20y%3D%22394%22%20width%3D%22100%22%20height%3D%2260%22%20as%3D%22geometry%22%2F%3E%3C%2FmxCell%3E%3CmxCell%20id%3D%2220%22%20style%3D%22edgeStyle%3DorthogonalEdgeStyle%3Brounded%3D0%3BorthogonalLoop%3D1%3BjettySize%3Dauto%3Bhtml%3D1%3BexitX%3D0%3BexitY%3D0.25%3BexitDx%3D0%3BexitDy%3D0%3BexitPerimeter%3D0%3BendArrow%3Dnone%3BendFill%3D0%3B%22%20edge%3D%221%22%20parent%3D%222%22%20source%3D%2222%22%3E%3CmxGeometry%20relative%3D%221%22%20as%3D%22geometry%22%3E%3CmxPoint%20x%3D%22265%22%20y%3D%22180%22%20as%3D%22targetPoint%22%2F%3E%3C%2FmxGeometry%3E%3C%2FmxCell%3E%3CmxCell%20id%3D%2221%22%20style%3D%22edgeStyle%3DorthogonalEdgeStyle%3Bshape%3Dconnector%3Brounded%3D0%3BorthogonalLoop%3D1%3BjettySize%3Dauto%3Bhtml%3D1%3BexitX%3D0%3BexitY%3D0.75%3BexitDx%3D0%3BexitDy%3D0%3BexitPerimeter%3D0%3BstrokeColor%3Ddefault%3Balign%3Dcenter%3BverticalAlign%3Dmiddle%3BfontFamily%3DHelvetica%3BfontSize%3D11%3BfontColor%3Ddefault%3BlabelBackgroundColor%3Ddefault%3BendArrow%3Dnone%3BendFill%3D0%3B%22%20edge%3D%221%22%20parent%3D%222%22%20source%3D%2222%22%3E%3CmxGeometry%20relative%3D%221%22%20as%3D%22geometry%22%3E%3CmxPoint%20x%3D%22465%22%20y%3D%22508.8333333333335%22%20as%3D%22targetPoint%22%2F%3E%3C%2FmxGeometry%3E%3C%2FmxCell%3E%3CmxCell%20id%3D%2222%22%20value%3D%22%26lt%3Bp%20style%3D%26quot%3Bline-height%3A%20110%25%3B%26quot%3B%26gt%3B%26lt%3Bbr%26gt%3B%26lt%3B%2Fp%26gt%3B%22%20style%3D%22verticalLabelPosition%3Dbottom%3Bshadow%3D0%3Bdashed%3D0%3Balign%3Dcenter%3Bhtml%3D1%3BverticalAlign%3Dtop%3Bshape%3Dmxgraph.electrical.logic_gates.logic_gate%3Boperation%3Dand%3BspacingTop%3D-20%3B%22%20vertex%3D%221%22%20parent%3D%222%22%3E%3CmxGeometry%20x%3D%22485%22%20y%3D%22464%22%20width%3D%22100%22%20height%3D%2260%22%20as%3D%22geometry%22%2F%3E%3C%2FmxCell%3E%3CmxCell%20id%3D%2223%22%20style%3D%22edgeStyle%3DorthogonalEdgeStyle%3Brounded%3D0%3BorthogonalLoop%3D1%3BjettySize%3Dauto%3Bhtml%3D1%3BexitX%3D0%3BexitY%3D0.25%3BexitDx%3D0%3BexitDy%3D0%3BexitPerimeter%3D0%3BendArrow%3Dnone%3BendFill%3D0%3B%22%20edge%3D%221%22%20parent%3D%222%22%20source%3D%2225%22%3E%3CmxGeometry%20relative%3D%221%22%20as%3D%22geometry%22%3E%3CmxPoint%20x%3D%22225%22%20y%3D%22250%22%20as%3D%22targetPoint%22%2F%3E%3C%2FmxGeometry%3E%3C%2FmxCell%3E%3CmxCell%20id%3D%2224%22%20style%3D%22edgeStyle%3DorthogonalEdgeStyle%3Bshape%3Dconnector%3Brounded%3D0%3BorthogonalLoop%3D1%3BjettySize%3Dauto%3Bhtml%3D1%3BexitX%3D0%3BexitY%3D0.75%3BexitDx%3D0%3BexitDy%3D0%3BexitPerimeter%3D0%3BstrokeColor%3Ddefault%3Balign%3Dcenter%3BverticalAlign%3Dmiddle%3BfontFamily%3DHelvetica%3BfontSize%3D11%3BfontColor%3Ddefault%3BlabelBackgroundColor%3Ddefault%3BendArrow%3Dnone%3BendFill%3D0%3B%22%20edge%3D%221%22%20parent%3D%222%22%20source%3D%2225%22%3E%3CmxGeometry%20relative%3D%221%22%20as%3D%22geometry%22%3E%3CmxPoint%20x%3D%22465%22%20y%3D%22578.8333333333335%22%20as%3D%22targetPoint%22%2F%3E%3C%2FmxGeometry%3E%3C%2FmxCell%3E%3CmxCell%20id%3D%2225%22%20value%3D%22%26lt%3Bp%20style%3D%26quot%3Bline-height%3A%20110%25%3B%26quot%3B%26gt%3B%26lt%3Bbr%26gt%3B%26lt%3B%2Fp%26gt%3B%22%20style%3D%22verticalLabelPosition%3Dbottom%3Bshadow%3D0%3Bdashed%3D0%3Balign%3Dcenter%3Bhtml%3D1%3BverticalAlign%3Dtop%3Bshape%3Dmxgraph.electrical.logic_gates.logic_gate%3Boperation%3Dand%3BspacingTop%3D-20%3B%22%20vertex%3D%221%22%20parent%3D%222%22%3E%3CmxGeometry%20x%3D%22485%22%20y%3D%22534%22%20width%3D%22100%22%20height%3D%2260%22%20as%3D%22geometry%22%2F%3E%3C%2FmxCell%3E%3CmxCell%20id%3D%2226%22%20value%3D%22%26lt%3Bp%26gt%3B%26lt%3Bfont%20style%3D%26quot%3Bfont-size%3A%2016px%3B%26quot%3B%20face%3D%26quot%3BHelvetica%26quot%3B%26gt%3Ba%5B0%5D%26lt%3B%2Ffont%26gt%3B%26lt%3B%2Fp%26gt%3B%22%20style%3D%22text%3Bhtml%3D1%3Balign%3Dcenter%3BverticalAlign%3Dmiddle%3Bresizable%3D0%3Bpoints%3D%5B%5D%3Bautosize%3D1%3BstrokeColor%3Dnone%3BfillColor%3Dnone%3B%22%20vertex%3D%221%22%20parent%3D%222%22%3E%3CmxGeometry%20x%3D%22578%22%20y%3D%2224%22%20width%3D%2250%22%20height%3D%2260%22%20as%3D%22geometry%22%2F%3E%3C%2FmxCell%3E%3CmxCell%20id%3D%2227%22%20value%3D%22%26lt%3Bp%26gt%3B%26lt%3Bfont%20style%3D%26quot%3Bfont-size%3A%2016px%3B%26quot%3B%20face%3D%26quot%3BHelvetica%26quot%3B%26gt%3Ba%5B1%26lt%3B%2Ffont%26gt%3B%26lt%3Bspan%20style%3D%26quot%3Bfont-size%3A%2016px%3B%20background-color%3A%20initial%3B%26quot%3B%26gt%3B%5D%26lt%3B%2Fspan%26gt%3B%26lt%3B%2Fp%26gt%3B%22%20style%3D%22text%3Bhtml%3D1%3Balign%3Dcenter%3BverticalAlign%3Dmiddle%3Bresizable%3D0%3Bpoints%3D%5B%5D%3Bautosize%3D1%3BstrokeColor%3Dnone%3BfillColor%3Dnone%3B%22%20vertex%3D%221%22%20parent%3D%222%22%3E%3CmxGeometry%20x%3D%22578%22%20y%3D%2294%22%20width%3D%2250%22%20height%3D%2260%22%20as%3D%22geometry%22%2F%3E%3C%2FmxCell%3E%3CmxCell%20id%3D%2228%22%20value%3D%22%26lt%3Bp%26gt%3B%26lt%3Bfont%20style%3D%26quot%3Bfont-size%3A%2016px%3B%26quot%3B%20face%3D%26quot%3BHelvetica%26quot%3B%26gt%3Ba%5B2%5D%26lt%3B%2Ffont%26gt%3B%26lt%3B%2Fp%26gt%3B%22%20style%3D%22text%3Bhtml%3D1%3Balign%3Dcenter%3BverticalAlign%3Dmiddle%3Bresizable%3D0%3Bpoints%3D%5B%5D%3Bautosize%3D1%3BstrokeColor%3Dnone%3BfillColor%3Dnone%3B%22%20vertex%3D%221%22%20parent%3D%222%22%3E%3CmxGeometry%20x%3D%22578%22%20y%3D%22164%22%20width%3D%2250%22%20height%3D%2260%22%20as%3D%22geometry%22%2F%3E%3C%2FmxCell%3E%3CmxCell%20id%3D%2229%22%20value%3D%22%26lt%3Bp%26gt%3B%26lt%3Bfont%20style%3D%26quot%3Bfont-size%3A%2016px%3B%26quot%3B%20face%3D%26quot%3BHelvetica%26quot%3B%26gt%3Ba%5B3%26lt%3B%2Ffont%26gt%3B%26lt%3Bspan%20style%3D%26quot%3Bfont-size%3A%2016px%3B%20background-color%3A%20initial%3B%26quot%3B%26gt%3B%5D%26lt%3B%2Fspan%26gt%3B%26lt%3B%2Fp%26gt%3B%22%20style%3D%22text%3Bhtml%3D1%3Balign%3Dcenter%3BverticalAlign%3Dmiddle%3Bresizable%3D0%3Bpoints%3D%5B%5D%3Bautosize%3D1%3BstrokeColor%3Dnone%3BfillColor%3Dnone%3B%22%20vertex%3D%221%22%20parent%3D%222%22%3E%3CmxGeometry%20x%3D%22578%22%20y%3D%22234%22%20width%3D%2250%22%20height%3D%2260%22%20as%3D%22geometry%22%2F%3E%3C%2FmxCell%3E%3CmxCell%20id%3D%2230%22%20value%3D%22%26lt%3Bp%26gt%3B%26lt%3Bfont%20style%3D%26quot%3Bfont-size%3A%2016px%3B%26quot%3B%20face%3D%26quot%3BHelvetica%26quot%3B%26gt%3Bb%5B0%5D%26lt%3B%2Ffont%26gt%3B%26lt%3B%2Fp%26gt%3B%22%20style%3D%22text%3Bhtml%3D1%3Balign%3Dcenter%3BverticalAlign%3Dmiddle%3Bresizable%3D0%3Bpoints%3D%5B%5D%3Bautosize%3D1%3BstrokeColor%3Dnone%3BfillColor%3Dnone%3B%22%20vertex%3D%221%22%20parent%3D%222%22%3E%3CmxGeometry%20x%3D%22578%22%20y%3D%22324%22%20width%3D%2250%22%20height%3D%2260%22%20as%3D%22geometry%22%2F%3E%3C%2FmxCell%3E%3CmxCell%20id%3D%2231%22%20value%3D%22%26lt%3Bp%26gt%3B%26lt%3Bfont%20style%3D%26quot%3Bfont-size%3A%2016px%3B%26quot%3B%20face%3D%26quot%3BHelvetica%26quot%3B%26gt%3Bb%5B1%26lt%3B%2Ffont%26gt%3B%26lt%3Bspan%20style%3D%26quot%3Bfont-size%3A%2016px%3B%20background-color%3A%20initial%3B%26quot%3B%26gt%3B%5D%26lt%3B%2Fspan%26gt%3B%26lt%3B%2Fp%26gt%3B%22%20style%3D%22text%3Bhtml%3D1%3Balign%3Dcenter%3BverticalAlign%3Dmiddle%3Bresizable%3D0%3Bpoints%3D%5B%5D%3Bautosize%3D1%3BstrokeColor%3Dnone%3BfillColor%3Dnone%3B%22%20vertex%3D%221%22%20parent%3D%222%22%3E%3CmxGeometry%20x%3D%22578%22%20y%3D%22394%22%20width%3D%2250%22%20height%3D%2260%22%20as%3D%22geometry%22%2F%3E%3C%2FmxCell%3E%3CmxCell%20id%3D%2232%22%20value%3D%22%26lt%3Bp%26gt%3B%26lt%3Bfont%20style%3D%26quot%3Bfont-size%3A%2016px%3B%26quot%3B%20face%3D%26quot%3BHelvetica%26quot%3B%26gt%3Bb%5B2%5D%26lt%3B%2Ffont%26gt%3B%26lt%3B%2Fp%26gt%3B%22%20style%3D%22text%3Bhtml%3D1%3Balign%3Dcenter%3BverticalAlign%3Dmiddle%3Bresizable%3D0%3Bpoints%3D%5B%5D%3Bautosize%3D1%3BstrokeColor%3Dnone%3BfillColor%3Dnone%3B%22%20vertex%3D%221%22%20parent%3D%222%22%3E%3CmxGeometry%20x%3D%22578%22%20y%3D%22464%22%20width%3D%2250%22%20height%3D%2260%22%20as%3D%22geometry%22%2F%3E%3C%2FmxCell%3E%3CmxCell%20id%3D%2233%22%20value%3D%22%26lt%3Bp%26gt%3B%26lt%3Bfont%20style%3D%26quot%3Bfont-size%3A%2016px%3B%26quot%3B%20face%3D%26quot%3BHelvetica%26quot%3B%26gt%3Bb%5B3%26lt%3B%2Ffont%26gt%3B%26lt%3Bspan%20style%3D%26quot%3Bfont-size%3A%2016px%3B%20background-color%3A%20initial%3B%26quot%3B%26gt%3B%5D%26lt%3B%2Fspan%26gt%3B%26lt%3B%2Fp%26gt%3B%22%20style%3D%22text%3Bhtml%3D1%3Balign%3Dcenter%3BverticalAlign%3Dmiddle%3Bresizable%3D0%3Bpoints%3D%5B%5D%3Bautosize%3D1%3BstrokeColor%3Dnone%3BfillColor%3Dnone%3B%22%20vertex%3D%221%22%20parent%3D%222%22%3E%3CmxGeometry%20x%3D%22578%22%20y%3D%22534%22%20width%3D%2250%22%20height%3D%2260%22%20as%3D%22geometry%22%2F%3E%3C%2FmxCell%3E%3CmxCell%20id%3D%2234%22%20value%3D%22%22%20style%3D%22edgeStyle%3DorthogonalEdgeStyle%3Brounded%3D0%3BorthogonalLoop%3D1%3BjettySize%3Dauto%3Bhtml%3D1%3BexitX%3D0%3BexitY%3D0.25%3BexitDx%3D0%3BexitDy%3D0%3BexitPerimeter%3D0%3BendArrow%3Dnone%3BendFill%3D0%3B%22%20edge%3D%221%22%20parent%3D%222%22%20source%3D%224%22%20target%3D%2236%22%3E%3CmxGeometry%20relative%3D%221%22%20as%3D%22geometry%22%3E%3CmxPoint%20x%3D%2285%22%20y%3D%2239%22%20as%3D%22targetPoint%22%2F%3E%3CmxPoint%20x%3D%22485%22%20y%3D%2239%22%20as%3D%22sourcePoint%22%2F%3E%3C%2FmxGeometry%3E%3C%2FmxCell%3E%3CmxCell%20id%3D%2235%22%20style%3D%22edgeStyle%3DorthogonalEdgeStyle%3Bshape%3Dconnector%3Brounded%3D0%3BorthogonalLoop%3D1%3BjettySize%3Dauto%3Bhtml%3D1%3BexitX%3D0%3BexitY%3D0.5%3BexitDx%3D0%3BexitDy%3D0%3BstrokeColor%3Ddefault%3Balign%3Dcenter%3BverticalAlign%3Dmiddle%3BfontFamily%3DHelvetica%3BfontSize%3D11%3BfontColor%3Ddefault%3BlabelBackgroundColor%3Ddefault%3BendArrow%3Dnone%3BendFill%3D0%3B%22%20edge%3D%221%22%20parent%3D%222%22%20source%3D%2236%22%3E%3CmxGeometry%20relative%3D%221%22%20as%3D%22geometry%22%3E%3CmxPoint%20x%3D%2285%22%20y%3D%2239%22%20as%3D%22targetPoint%22%2F%3E%3C%2FmxGeometry%3E%3C%2FmxCell%3E%3CmxCell%20id%3D%2236%22%20value%3D%22%22%20style%3D%22shape%3Dellipse%3BfillColor%3D%23000000%3BstrokeColor%3Dnone%3Bhtml%3D1%3Bsketch%3D0%3BfontFamily%3DHelvetica%3BfontSize%3D11%3BfontColor%3Ddefault%3BlabelBackgroundColor%3Ddefault%3B%22%20vertex%3D%221%22%20parent%3D%222%22%3E%3CmxGeometry%20x%3D%22340%22%20y%3D%2234%22%20width%3D%2210%22%20height%3D%2210%22%20as%3D%22geometry%22%2F%3E%3C%2FmxCell%3E%3CmxCell%20id%3D%2237%22%20value%3D%22%22%20style%3D%22shape%3Dellipse%3BfillColor%3D%23000000%3BstrokeColor%3Dnone%3Bhtml%3D1%3Bsketch%3D0%3BfontFamily%3DHelvetica%3BfontSize%3D11%3BfontColor%3Ddefault%3BlabelBackgroundColor%3Ddefault%3B%22%20vertex%3D%221%22%20parent%3D%222%22%3E%3CmxGeometry%20x%3D%22300%22%20y%3D%22103%22%20width%3D%2210%22%20height%3D%2210%22%20as%3D%22geometry%22%2F%3E%3C%2FmxCell%3E%3CmxCell%20id%3D%2238%22%20value%3D%22%22%20style%3D%22shape%3Dellipse%3BfillColor%3D%23000000%3BstrokeColor%3Dnone%3Bhtml%3D1%3Bsketch%3D0%3BfontFamily%3DHelvetica%3BfontSize%3D11%3BfontColor%3Ddefault%3BlabelBackgroundColor%3Ddefault%3B%22%20vertex%3D%221%22%20parent%3D%222%22%3E%3CmxGeometry%20x%3D%22260%22%20y%3D%22174%22%20width%3D%2210%22%20height%3D%2210%22%20as%3D%22geometry%22%2F%3E%3C%2FmxCell%3E%3CmxCell%20id%3D%2239%22%20value%3D%22%22%20style%3D%22shape%3Dellipse%3BfillColor%3D%23000000%3BstrokeColor%3Dnone%3Bhtml%3D1%3Bsketch%3D0%3BfontFamily%3DHelvetica%3BfontSize%3D11%3BfontColor%3Ddefault%3BlabelBackgroundColor%3Ddefault%3B%22%20vertex%3D%221%22%20parent%3D%222%22%3E%3CmxGeometry%20x%3D%22220%22%20y%3D%22243%22%20width%3D%2210%22%20height%3D%2210%22%20as%3D%22geometry%22%2F%3E%3C%2FmxCell%3E%3CmxCell%20id%3D%2240%22%20value%3D%22%22%20style%3D%22endArrow%3Dnone%3Bhtml%3D1%3Brounded%3D0%3BstrokeColor%3Ddefault%3Balign%3Dcenter%3BverticalAlign%3Dmiddle%3BfontFamily%3DHelvetica%3BfontSize%3D11%3BfontColor%3Ddefault%3BlabelBackgroundColor%3Ddefault%3BedgeStyle%3DorthogonalEdgeStyle%3B%22%20edge%3D%221%22%20parent%3D%222%22%3E%3CmxGeometry%20width%3D%2250%22%20height%3D%2250%22%20relative%3D%221%22%20as%3D%22geometry%22%3E%3CmxPoint%20x%3D%2285%22%20y%3D%22620%22%20as%3D%22sourcePoint%22%2F%3E%3CmxPoint%20x%3D%22465%22%20y%3D%22370%22%20as%3D%22targetPoint%22%2F%3E%3C%2FmxGeometry%3E%3C%2FmxCell%3E%3CmxCell%20id%3D%2241%22%20value%3D%22%22%20style%3D%22endArrow%3Dnone%3Bhtml%3D1%3Brounded%3D0%3BstrokeColor%3Ddefault%3Balign%3Dcenter%3BverticalAlign%3Dmiddle%3BfontFamily%3DHelvetica%3BfontSize%3D11%3BfontColor%3Ddefault%3BlabelBackgroundColor%3Ddefault%3BedgeStyle%3DorthogonalEdgeStyle%3B%22%20edge%3D%221%22%20parent%3D%222%22%3E%3CmxGeometry%20width%3D%2250%22%20height%3D%2250%22%20relative%3D%221%22%20as%3D%22geometry%22%3E%3CmxPoint%20x%3D%22145%22%20y%3D%22620%22%20as%3D%22sourcePoint%22%2F%3E%3CmxPoint%20x%3D%22465%22%20y%3D%2270%22%20as%3D%22targetPoint%22%2F%3E%3CArray%20as%3D%22points%22%3E%3CmxPoint%20x%3D%22145%22%20y%3D%22300%22%2F%3E%3C%2FArray%3E%3C%2FmxGeometry%3E%3C%2FmxCell%3E%3CmxCell%20id%3D%2242%22%20value%3D%22%22%20style%3D%22verticalLabelPosition%3Dbottom%3Bshadow%3D0%3Bdashed%3D0%3Balign%3Dcenter%3Bhtml%3D1%3BverticalAlign%3Dtop%3Bshape%3Dmxgraph.electrical.logic_gates.inverter_2%3BfontFamily%3DHelvetica%3BfontSize%3D11%3BfontColor%3Ddefault%3BlabelBackgroundColor%3Ddefault%3Brotation%3D-90%3B%22%20vertex%3D%221%22%20parent%3D%222%22%3E%3CmxGeometry%20x%3D%2295%22%20y%3D%22420%22%20width%3D%22100%22%20height%3D%2260%22%20as%3D%22geometry%22%2F%3E%3C%2FmxCell%3E%3CmxCell%20id%3D%2243%22%20value%3D%22%22%20style%3D%22shape%3Dellipse%3BfillColor%3D%23000000%3BstrokeColor%3Dnone%3Bhtml%3D1%3Bsketch%3D0%3BfontFamily%3DHelvetica%3BfontSize%3D11%3BfontColor%3Ddefault%3BlabelBackgroundColor%3Ddefault%3B%22%20vertex%3D%221%22%20parent%3D%222%22%3E%3CmxGeometry%20x%3D%22460%22%20y%3D%22134%22%20width%3D%2210%22%20height%3D%2210%22%20as%3D%22geometry%22%2F%3E%3C%2FmxCell%3E%3CmxCell%20id%3D%2244%22%20value%3D%22%22%20style%3D%22shape%3Dellipse%3BfillColor%3D%23000000%3BstrokeColor%3Dnone%3Bhtml%3D1%3Bsketch%3D0%3BfontFamily%3DHelvetica%3BfontSize%3D11%3BfontColor%3Ddefault%3BlabelBackgroundColor%3Ddefault%3B%22%20vertex%3D%221%22%20parent%3D%222%22%3E%3CmxGeometry%20x%3D%22461%22%20y%3D%22204%22%20width%3D%2210%22%20height%3D%2210%22%20as%3D%22geometry%22%2F%3E%3C%2FmxCell%3E%3CmxCell%20id%3D%2245%22%20value%3D%22%22%20style%3D%22shape%3Dellipse%3BfillColor%3D%23000000%3BstrokeColor%3Dnone%3Bhtml%3D1%3Bsketch%3D0%3BfontFamily%3DHelvetica%3BfontSize%3D11%3BfontColor%3Ddefault%3BlabelBackgroundColor%3Ddefault%3B%22%20vertex%3D%221%22%20parent%3D%222%22%3E%3CmxGeometry%20x%3D%22460%22%20y%3D%22274%22%20width%3D%2210%22%20height%3D%2210%22%20as%3D%22geometry%22%2F%3E%3C%2FmxCell%3E%3CmxCell%20id%3D%2246%22%20value%3D%22%22%20style%3D%22shape%3Dellipse%3BfillColor%3D%23000000%3BstrokeColor%3Dnone%3Bhtml%3D1%3Bsketch%3D0%3BfontFamily%3DHelvetica%3BfontSize%3D11%3BfontColor%3Ddefault%3BlabelBackgroundColor%3Ddefault%3B%22%20vertex%3D%221%22%20parent%3D%222%22%3E%3CmxGeometry%20x%3D%22461%22%20y%3D%22434%22%20width%3D%2210%22%20height%3D%2210%22%20as%3D%22geometry%22%2F%3E%3C%2FmxCell%3E%3CmxCell%20id%3D%2247%22%20value%3D%22%22%20style%3D%22shape%3Dellipse%3BfillColor%3D%23000000%3BstrokeColor%3Dnone%3Bhtml%3D1%3Bsketch%3D0%3BfontFamily%3DHelvetica%3BfontSize%3D11%3BfontColor%3Ddefault%3BlabelBackgroundColor%3Ddefault%3B%22%20vertex%3D%221%22%20parent%3D%222%22%3E%3CmxGeometry%20x%3D%22462%22%20y%3D%22504%22%20width%3D%2210%22%20height%3D%2210%22%20as%3D%22geometry%22%2F%3E%3C%2FmxCell%3E%3CmxCell%20id%3D%2248%22%20value%3D%22%22%20style%3D%22shape%3Dellipse%3BfillColor%3D%23000000%3BstrokeColor%3Dnone%3Bhtml%3D1%3Bsketch%3D0%3BfontFamily%3DHelvetica%3BfontSize%3D11%3BfontColor%3Ddefault%3BlabelBackgroundColor%3Ddefault%3B%22%20vertex%3D%221%22%20parent%3D%222%22%3E%3CmxGeometry%20x%3D%22461%22%20y%3D%22574%22%20width%3D%2210%22%20height%3D%2210%22%20as%3D%22geometry%22%2F%3E%3C%2FmxCell%3E%3CmxCell%20id%3D%2249%22%20value%3D%22%26lt%3Bp%26gt%3B%26lt%3Bfont%20style%3D%26quot%3Bfont-size%3A%2016px%3B%26quot%3B%20face%3D%26quot%3BHelvetica%26quot%3B%26gt%3Bin%5B0%5D%26lt%3B%2Ffont%26gt%3B%26lt%3B%2Fp%26gt%3B%22%20style%3D%22text%3Bhtml%3D1%3Balign%3Dcenter%3BverticalAlign%3Dmiddle%3Bresizable%3D0%3Bpoints%3D%5B%5D%3Bautosize%3D1%3BstrokeColor%3Dnone%3BfillColor%3Dnone%3B%22%20vertex%3D%221%22%20parent%3D%222%22%3E%3CmxGeometry%20x%3D%2235%22%20y%3D%229%22%20width%3D%2250%22%20height%3D%2260%22%20as%3D%22geometry%22%2F%3E%3C%2FmxCell%3E%3CmxCell%20id%3D%2250%22%20value%3D%22%26lt%3Bp%26gt%3B%26lt%3Bfont%20style%3D%26quot%3Bfont-size%3A%2016px%3B%26quot%3B%20face%3D%26quot%3BHelvetica%26quot%3B%26gt%3Bin%5B1%5D%26lt%3B%2Ffont%26gt%3B%26lt%3B%2Fp%26gt%3B%22%20style%3D%22text%3Bhtml%3D1%3Balign%3Dcenter%3BverticalAlign%3Dmiddle%3Bresizable%3D0%3Bpoints%3D%5B%5D%3Bautosize%3D1%3BstrokeColor%3Dnone%3BfillColor%3Dnone%3B%22%20vertex%3D%221%22%20parent%3D%222%22%3E%3CmxGeometry%20x%3D%2235%22%20y%3D%2278%22%20width%3D%2250%22%20height%3D%2260%22%20as%3D%22geometry%22%2F%3E%3C%2FmxCell%3E%3CmxCell%20id%3D%2251%22%20value%3D%22%26lt%3Bp%26gt%3B%26lt%3Bfont%20style%3D%26quot%3Bfont-size%3A%2016px%3B%26quot%3B%20face%3D%26quot%3BHelvetica%26quot%3B%26gt%3Bin%5B2%5D%26lt%3B%2Ffont%26gt%3B%26lt%3B%2Fp%26gt%3B%22%20style%3D%22text%3Bhtml%3D1%3Balign%3Dcenter%3BverticalAlign%3Dmiddle%3Bresizable%3D0%3Bpoints%3D%5B%5D%3Bautosize%3D1%3BstrokeColor%3Dnone%3BfillColor%3Dnone%3B%22%20vertex%3D%221%22%20parent%3D%222%22%3E%3CmxGeometry%20x%3D%2235%22%20y%3D%22149%22%20width%3D%2250%22%20height%3D%2260%22%20as%3D%22geometry%22%2F%3E%3C%2FmxCell%3E%3CmxCell%20id%3D%2252%22%20value%3D%22%26lt%3Bp%26gt%3B%26lt%3Bfont%20style%3D%26quot%3Bfont-size%3A%2016px%3B%26quot%3B%20face%3D%26quot%3BHelvetica%26quot%3B%26gt%3Bin%5B3%5D%26lt%3B%2Ffont%26gt%3B%26lt%3B%2Fp%26gt%3B%22%20style%3D%22text%3Bhtml%3D1%3Balign%3Dcenter%3BverticalAlign%3Dmiddle%3Bresizable%3D0%3Bpoints%3D%5B%5D%3Bautosize%3D1%3BstrokeColor%3Dnone%3BfillColor%3Dnone%3B%22%20vertex%3D%221%22%20parent%3D%222%22%3E%3CmxGeometry%20x%3D%2235%22%20y%3D%22218%22%20width%3D%2250%22%20height%3D%2260%22%20as%3D%22geometry%22%2F%3E%3C%2FmxCell%3E%3CmxCell%20id%3D%2253%22%20value%3D%22%26lt%3Bp%26gt%3B%26lt%3Bspan%20style%3D%26quot%3Bfont-size%3A%2016px%3B%26quot%3B%26gt%3Bsel%26lt%3B%2Fspan%26gt%3B%26lt%3B%2Fp%26gt%3B%22%20style%3D%22text%3Bhtml%3D1%3Balign%3Dcenter%3BverticalAlign%3Dmiddle%3Bresizable%3D0%3Bpoints%3D%5B%5D%3Bautosize%3D1%3BstrokeColor%3Dnone%3BfillColor%3Dnone%3B%22%20vertex%3D%221%22%20parent%3D%222%22%3E%3CmxGeometry%20x%3D%2240%22%20y%3D%22589%22%20width%3D%2240%22%20height%3D%2260%22%20as%3D%22geometry%22%2F%3E%3C%2FmxCell%3E%3CmxCell%20id%3D%2254%22%20value%3D%22%22%20style%3D%22rounded%3D0%3BwhiteSpace%3Dwrap%3Bhtml%3D1%3BfontFamily%3DHelvetica%3BfontSize%3D11%3BfontColor%3Ddefault%3BlabelBackgroundColor%3Ddefault%3BfillColor%3Dnone%3B%22%20vertex%3D%221%22%20parent%3D%222%22%3E%3CmxGeometry%20width%3D%22655%22%20height%3D%22660%22%20as%3D%22geometry%22%2F%3E%3C%2FmxCell%3E%3C%2Froot%3E%3C%2FmxGraphModel%3E&lt;/span&gt;" style="rounded=0;whiteSpace=wrap;html=1;fontFamily=Helvetica;fontSize=11;fontColor=default;labelBackgroundColor=default;fillColor=none;" vertex="1" parent="1">
          <mxGeometry x="40" y="660" width="690" height="260" as="geometry" />
        </mxCell>
        <mxCell id="nPTtFJBcblNeartGyqR0-107" value="&lt;div style=&quot;color: rgb(248, 248, 242); background-color: rgb(38, 41, 44); font-family: &amp;quot;Fira Code&amp;quot;, Consolas, &amp;quot;Courier New&amp;quot;, monospace, Menlo, Monaco, &amp;quot;Courier New&amp;quot;, monospace; font-size: 16px; line-height: 24px; white-space-collapse: preserve;&quot;&gt;Ripple_Carry_Adder&lt;/div&gt;" style="text;html=1;align=center;verticalAlign=middle;resizable=0;points=[];autosize=1;strokeColor=none;fillColor=none;" vertex="1" parent="1">
          <mxGeometry x="7" y="620" width="200" height="40" as="geometry" />
        </mxCell>
      </root>
    </mxGraphModel>
  </diagram>
</mxfile>
